<svg width="151" height="151" viewBox="0 0 151 151" fill="none" xmlns="http://www.w3.org/2000/svg">
<path d="M150.361 75.0996C150.361 116.5 116.761 150.1 75.3608 150.1C33.9608 150.1 0.36084 116.5 0.36084 75.0996C0.36084 33.5996 33.9608 0.0996094 75.3608 0.0996094C116.761 0.0996094 150.361 33.5996 150.361 75.0996Z" fill="#8FB122"/>
<path d="M26.8608 60.7997C26.9608 60.2997 27.0608 59.7993 27.3608 59.3993C27.8608 58.1993 29.0608 57.7995 30.2608 57.5995C33.9608 56.8995 37.6608 56.2995 41.3608 55.5995C42.8608 55.2995 44.4608 55.0994 45.9608 54.4994C48.5608 53.4994 49.0608 50.5995 47.1608 48.5995C46.3608 47.6995 45.4608 46.8993 44.7608 45.8993C42.3608 42.6993 43.1608 38.2995 46.5608 36.0995C48.9608 34.3995 51.6608 33.9996 54.3608 35.1996C56.8608 36.2996 58.4608 38.0993 58.6608 40.8993C58.8608 42.4993 58.4608 43.9993 57.7608 45.3993C57.2608 46.2993 56.7608 47.2993 56.7608 48.3993C56.5608 50.3993 58.0608 51.9994 60.2608 51.9994C61.7608 51.9994 63.2608 51.7995 64.7608 51.5995C68.4608 50.9995 72.2608 50.2996 75.9608 49.6996C76.5608 49.5996 77.1608 49.5995 77.7608 49.5995C78.7608 49.6995 79.4608 50.1995 79.8608 51.0995C80.5608 52.3995 80.7608 53.7996 81.0608 55.1996C81.5942 58.1996 82.0942 61.1661 82.5608 64.0995C82.7608 65.5995 82.9608 66.9993 83.1608 68.3993C83.1608 68.5326 83.1608 68.6663 83.1608 68.7997C82.9608 70.2997 82.0608 70.8993 80.7608 70.3993C80.0608 70.0993 79.3608 69.7993 78.6608 69.3993C75.6608 67.6993 71.8608 67.9996 69.1608 70.1996C67.2608 71.7996 66.1608 73.7997 65.9608 76.2997C65.7608 78.9997 66.3608 81.5997 68.0608 83.7997C70.2608 86.5997 73.6608 87.9993 77.2608 86.8993C79.1608 86.2993 80.5608 85.1997 81.7608 83.7997C82.1608 83.333 82.5942 82.9328 83.0608 82.5995C83.9608 81.8995 84.8608 82.0995 85.4608 83.0995C86.0608 84.0995 86.1608 85.2993 86.3608 86.3993C86.8275 88.9326 87.2942 91.4995 87.7608 94.0995C88.0608 95.9995 88.4608 97.8993 88.6608 99.8993C88.8608 101.499 88.1608 103.099 86.3608 103.499C84.7608 103.899 83.0608 104.199 81.3608 104.499C78.0608 105.099 74.6608 105.7 71.2608 106.3C70.0608 106.5 69.0608 107 68.2608 107.8C66.9608 109.2 66.9608 111.099 68.2608 112.599C68.9608 113.399 69.7608 114.099 70.4608 114.899C72.7608 117.599 72.9608 121.399 70.3608 124.099C68.0608 126.599 65.1608 127.399 61.9608 126.499C58.0608 125.399 55.9608 121.399 57.2608 117.599C57.5608 116.499 58.0608 115.499 58.5608 114.499C59.2608 112.699 58.8608 110.999 57.4608 109.999C56.5608 109.299 55.4608 109.199 54.3608 109.399C52.0608 109.599 49.7608 109.999 47.4608 110.399C44.7608 110.799 42.0608 111.3 39.3608 111.7C38.2608 111.9 37.1608 111.999 36.2608 110.999C35.8608 110.499 35.4608 109.799 35.2608 109.099C34.8608 107.799 34.6608 106.299 34.3608 104.999C33.8275 101.999 33.3275 99.0328 32.8608 96.0995C32.6608 95.0328 32.5275 93.9994 32.4608 92.9994C32.4608 92.6994 32.5608 92.2994 32.5608 91.9994C32.8608 90.9994 33.6608 90.5993 34.6608 90.8993C35.3942 91.1659 36.1275 91.4993 36.8608 91.8993C40.0608 93.7993 44.2608 93.2997 46.8608 90.7997C49.0608 88.5997 49.8608 85.8993 49.5608 82.8993C49.3608 80.9993 48.8608 79.1996 47.6608 77.6996C45.5608 74.8996 41.9608 73.2995 38.1608 74.5995C36.5608 75.0995 35.2608 75.9997 34.0608 77.2997C33.6608 77.7997 33.1608 78.2997 32.5608 78.7997C31.6608 79.4997 30.5608 79.2996 30.0608 78.1996C29.6608 77.0996 29.4608 75.9994 29.2608 74.9994C28.4608 70.6994 27.7608 66.4997 26.9608 62.2997C26.9608 61.9663 26.9275 61.633 26.8608 61.2997C26.8608 61.0997 26.8608 60.933 26.8608 60.7997Z" fill="white"/>
<path d="M123.861 60.7993C123.761 60.8993 123.661 60.899 123.661 60.999C123.461 62.599 122.561 63.8993 121.761 65.2993C119.894 68.366 118.061 71.4324 116.261 74.499C115.761 75.299 115.161 76.1989 114.461 76.8989C113.461 77.8989 112.261 77.6989 111.661 76.3989C111.361 75.6989 111.061 74.8992 110.761 74.1992C109.361 70.6992 105.761 68.4989 102.061 68.8989C99.3606 69.1989 97.2606 70.4991 95.5606 72.5991C94.4606 74.0991 93.5606 75.8993 93.3606 77.7993C92.9606 81.0993 94.3606 84.5989 97.5606 86.3989C99.3606 87.3989 101.361 87.6989 103.461 87.3989C104.127 87.3323 104.794 87.2993 105.461 87.2993C106.661 87.2993 107.261 88.0989 106.961 89.3989C106.761 90.4989 106.061 91.499 105.461 92.499C103.394 95.9657 101.327 99.4323 99.2607 102.899C98.994 103.432 98.694 103.899 98.3606 104.299C97.2606 105.699 95.6607 105.999 94.2607 105.199C93.3273 104.733 92.3606 104.233 91.3606 103.699C92.3606 101.399 92.0606 99.199 91.6606 96.999C91.1606 94.299 90.7607 91.4993 90.2607 88.7993C89.8607 86.7993 89.5606 84.899 89.0606 82.999C88.6606 81.499 87.8606 80.1989 86.4606 79.3989C84.5606 78.3989 82.7606 78.5993 81.0606 79.7993C80.1606 80.5993 79.3606 81.4989 78.4606 82.3989C77.0606 83.6989 75.3606 84.1992 73.5606 83.6992C71.4606 83.0992 70.1606 81.599 69.5606 79.499C69.3606 78.299 69.2606 77.0989 69.4606 75.8989C69.8606 73.7989 71.7606 71.9993 73.8606 71.7993C75.0606 71.5993 76.1607 71.899 77.2607 72.499C78.2607 72.999 79.1606 73.4992 80.1606 73.6992C83.0606 74.3992 85.5606 73.099 86.3606 69.999C86.6606 68.699 86.5607 67.2989 86.2607 65.8989C85.7607 63.0989 85.3606 60.2991 84.8606 57.5991C84.4606 55.3991 84.0606 53.2992 83.5606 51.1992C83.3606 50.2992 82.8606 49.399 82.4606 48.499C82.394 48.4324 82.3273 48.366 82.2607 48.2993C81.0607 47.3993 79.9606 46.4993 78.3606 46.2993C76.6606 46.0993 74.9606 46.3992 73.3606 46.6992C72.094 46.8992 70.8273 47.0993 69.5606 47.2993C69.4606 47.3993 69.2606 47.2993 69.1606 47.2993C70.1606 45.566 71.194 43.799 72.2607 41.999C73.6607 39.699 75.0606 37.399 76.4606 34.999C77.0606 34.199 77.7606 33.4992 78.8606 33.1992C79.6606 33.0992 80.4606 33.2992 81.1606 33.6992C82.4606 34.3992 83.7606 35.0993 84.9606 35.7993C88.0606 37.5993 91.0606 39.4992 94.1606 41.1992C94.8606 41.5992 95.7606 41.899 96.5606 41.999C98.7606 42.199 100.461 40.5989 100.461 38.3989C100.461 37.2989 100.261 36.199 100.261 34.999C100.361 31.799 102.561 28.7993 106.061 28.2993C109.561 27.7993 113.061 29.4991 114.661 32.5991C116.461 36.1991 114.961 40.2991 111.561 42.0991C110.561 42.5991 109.561 42.999 108.661 43.499C106.561 44.699 106.161 47.299 107.861 48.999C108.861 50.099 110.161 50.8991 111.461 51.5991C114.527 53.4658 117.627 55.3326 120.761 57.1992C121.261 57.4992 121.761 57.7991 122.161 58.0991C122.861 58.6991 123.561 59.2992 123.661 60.1992C123.661 60.2992 123.761 60.4991 123.861 60.5991C123.861 60.6658 123.861 60.7327 123.861 60.7993Z" fill="white"/>
</svg>
