<svg width="151" height="151" viewBox="0 0 151 151" fill="none" xmlns="http://www.w3.org/2000/svg">
<path d="M150.761 75.0996C150.761 116.5 117.261 150.1 75.7607 150.1C34.3607 150.1 0.760742 116.5 0.760742 75.0996C0.760742 33.5996 34.3607 0.0996094 75.7607 0.0996094C117.261 0.0996094 150.761 33.5996 150.761 75.0996Z" fill="#8FB122"/>
<path d="M34.8608 63.1992C35.6608 60.6992 37.4608 59.599 39.9608 59.499C43.9608 59.199 47.8608 58.7989 51.7608 58.3989C55.0608 58.0989 58.4608 57.799 61.7608 57.499C62.8608 57.499 63.5608 57.099 63.9608 55.999C66.8608 48.999 69.8608 41.9991 72.8608 35.0991C73.6608 33.1991 75.0608 31.999 77.1608 31.999C79.3608 31.999 80.7609 33.1991 81.5609 35.0991C84.5609 42.0991 87.5608 48.999 90.4608 55.999C90.9608 57.099 91.5609 57.499 92.5609 57.499C96.7609 57.899 100.861 58.2991 105.061 58.5991C108.361 58.8991 111.661 59.299 114.961 59.499C118.561 59.799 120.661 62.9991 119.261 66.0991C118.661 67.3991 117.461 68.099 116.461 68.999C112.594 72.4657 108.694 75.8993 104.761 79.2993C103.261 80.5993 101.861 81.8992 100.261 83.1992C99.7608 83.5992 99.6608 83.9991 99.8608 84.5991C100.861 89.0658 101.861 93.4989 102.861 97.8989C103.561 101.199 104.361 104.499 105.061 107.799C105.661 110.399 104.061 112.699 101.461 113.299C100.261 113.499 99.2608 113.199 98.2608 112.699C92.6608 109.299 87.0608 105.932 81.4608 102.599C80.2608 101.899 79.0608 101.299 77.9608 100.499C77.3608 100.199 76.9608 100.199 76.4608 100.499C69.8608 104.499 63.1608 108.499 56.4608 112.499C54.6608 113.599 52.8608 113.699 51.1608 112.499C49.4608 111.199 48.9608 109.499 49.4608 107.399C51.1608 99.8989 52.8609 92.2993 54.5609 84.7993C54.7609 83.9993 54.5608 83.599 53.9608 82.999C48.7608 78.499 43.6609 73.999 38.5609 69.499C37.8942 68.899 37.2275 68.3326 36.5609 67.7993C35.6609 67.0993 35.1608 66.0992 34.8608 65.1992C34.8608 64.5326 34.8608 63.8659 34.8608 63.1992Z" fill="white"/>
</svg>
