<svg width="151" height="151" viewBox="0 0 151 151" fill="none" xmlns="http://www.w3.org/2000/svg">
<path d="M150.092 75.2441C150.092 116.744 116.492 150.244 75.0918 150.244C33.6918 150.244 0.0917969 116.744 0.0917969 75.2441C0.0917969 33.8441 33.6918 0.244141 75.0918 0.244141C116.492 0.244141 150.092 33.8441 150.092 75.2441Z" fill="#012063"/>
<path fill-rule="evenodd" clip-rule="evenodd" d="M76.0921 23.8438C77.5921 24.2438 78.9921 24.6438 80.1921 25.6438C81.4921 26.7438 82.1921 28.1438 82.8921 29.6438C85.4921 35.3438 91.7921 38.3439 97.8921 36.7439C99.6921 36.3439 101.492 36.0438 103.392 36.6438C107.692 38.0438 110.492 43.2438 108.092 47.8438C106.892 50.1437 106.092 52.5439 106.192 55.2439C106.392 59.2439 107.892 62.5437 111.092 65.0437C112.892 66.4437 114.492 67.9438 115.092 70.4438C116.092 74.6438 113.492 79.1437 109.192 80.0437C106.892 80.5437 104.692 81.1438 102.792 82.6438C99.0921 85.4438 97.3921 89.0438 97.3921 93.6438C97.4921 95.6438 97.1921 97.6437 95.8921 99.3438C93.1921 103.044 87.9921 103.844 84.3921 100.944C82.4921 99.3438 80.3921 97.9438 77.8921 97.4438C73.7921 96.6438 70.0921 97.4438 66.7921 100.144C65.2921 101.344 63.7921 102.444 61.6921 102.644C57.1921 103.144 52.7921 99.7438 52.7921 95.1438C52.6921 92.5438 52.6921 90.0437 51.4921 87.5437C49.4921 83.6437 46.3921 81.1438 41.9921 80.3438C38.4921 79.6438 36.0921 77.7439 35.0921 74.2439C34.1921 70.8439 35.3921 67.7437 38.3921 65.5437C41.5921 63.2437 43.3921 60.2438 43.8921 56.3438C44.1921 53.8438 43.8921 51.3438 42.6921 49.1438C41.3921 46.8438 40.7921 44.5438 41.5921 41.9438C42.9921 37.7438 47.1921 35.4438 51.4921 36.6438C57.7921 38.3438 63.4921 35.6439 66.3921 31.2439C66.8921 30.3439 67.3921 29.3438 67.7921 28.4438C69.0921 26.0438 70.9921 24.5437 73.6921 24.0437C73.6921 24.0437 73.7921 23.9438 73.8921 23.8438C74.6254 23.8438 75.3588 23.8438 76.0921 23.8438ZM75.0921 38.5437C60.7921 38.4437 48.6921 49.9438 48.6921 64.8438C48.6921 79.6438 60.4921 91.4438 75.2921 91.3438C89.8921 91.1437 101.492 79.4438 101.492 64.9438C101.492 49.9438 89.2921 38.4437 75.0921 38.5437Z" fill="white"/>
<path d="M89.092 126.643C88.792 126.343 88.392 125.943 88.192 125.543C84.7253 117.943 81.292 110.343 77.892 102.743C77.792 102.643 77.792 102.643 77.792 102.443C79.092 102.743 80.092 103.443 81.092 104.243C83.892 106.743 87.192 107.943 90.892 107.543C94.092 107.243 96.892 105.943 99.092 103.643C99.292 103.443 99.492 103.243 99.692 103.043C99.692 103.043 99.692 103.043 99.892 102.943C100.759 104.943 101.659 106.943 102.592 108.943C103.792 111.643 105.092 114.443 106.292 117.143C106.492 117.743 106.492 118.543 106.292 119.043C105.992 119.743 105.192 119.543 104.492 119.343C102.892 118.843 101.292 118.443 99.692 118.043C96.992 117.443 94.2919 118.743 92.9919 121.143C92.2919 122.643 91.592 124.143 90.892 125.543C90.592 125.943 90.292 126.343 89.892 126.643C89.6253 126.643 89.3586 126.643 89.092 126.643Z" fill="white"/>
<path d="M60.1921 126.644C59.8921 126.344 59.4921 125.944 59.2921 125.544C58.5921 124.144 57.8921 122.544 57.0921 121.144C55.5921 118.444 52.8921 117.344 49.8921 118.144C48.3921 118.544 46.9921 119.044 45.4921 119.344C44.9921 119.444 44.1921 119.344 43.8921 119.044C43.6921 118.744 43.5921 117.944 43.7921 117.544C45.8921 112.644 48.0921 107.844 50.2921 102.944C51.0921 103.744 51.8921 104.544 52.7921 105.144C57.9921 108.744 63.9921 108.444 68.8921 104.444C69.8921 103.644 71.0921 103.044 72.0921 102.244C72.2255 102.377 72.3254 102.477 72.3921 102.544C71.6588 104.144 70.9588 105.744 70.2921 107.344C67.5588 113.344 64.7921 119.344 61.9921 125.344C61.7921 125.844 61.3921 126.244 60.9921 126.644C60.7254 126.644 60.4588 126.644 60.1921 126.644Z" fill="white"/>
<path fill-rule="evenodd" clip-rule="evenodd" d="M75.092 86.3433C63.592 86.4433 53.992 77.1433 53.592 65.6433C53.192 53.3433 62.892 43.4434 74.992 43.4434C87.192 43.4434 96.192 53.0434 96.592 64.2434C96.892 76.5434 86.892 86.4433 75.092 86.3433ZM71.792 67.1433C70.992 65.9433 70.192 64.7433 69.392 63.6433C68.492 62.4433 66.992 62.0433 65.892 62.8433C64.692 63.6433 64.492 65.1434 65.392 66.4434C66.592 68.1767 67.792 69.91 68.992 71.6433C70.192 73.2433 71.492 73.4433 73.092 72.3433C75.492 70.5433 77.892 68.7765 80.292 67.0432C82.292 65.6432 84.192 64.1434 86.192 62.7434C87.092 61.9434 87.292 60.7434 86.792 59.7434C86.392 58.8434 85.292 58.2434 84.192 58.4434C83.692 58.5434 83.092 58.8434 82.692 59.2434C79.092 61.8434 75.492 64.4433 71.792 67.1433Z" fill="white"/>
</svg>
