<svg width="151" height="151" viewBox="0 0 151 151" fill="none" xmlns="http://www.w3.org/2000/svg">
<path d="M150.4 75.4004C150.4 116.8 116.8 150.4 75.3999 150.4C33.8999 150.4 0.399902 116.8 0.399902 75.4004C0.399902 34.0004 33.8999 0.400391 75.3999 0.400391C116.8 0.400391 150.4 34.0004 150.4 75.4004Z" fill="#8FB122"/>
<path d="M83.7003 114.4C83.7003 114.267 83.6336 114.167 83.5003 114.101C83.3003 113.901 83.0003 113.9 82.7003 113.9C78.8336 113.9 74.967 113.9 71.1003 113.9C69.167 113.9 67.2336 113.9 65.3003 113.9C65.1003 113.9 64.9336 113.933 64.8003 114C64.5336 114.067 64.367 114.233 64.3003 114.5C64.3003 114.567 64.3003 114.601 64.3003 114.601C64.3003 114.801 64.3003 115 64.3003 115.2C64.8003 117.4 67.2003 119 69.5003 119.3C69.9003 119.366 70.3003 119.366 70.7003 119.3C71.1003 119.3 71.467 119.234 71.8003 119.101C71.867 119.034 71.9336 119 72.0003 119C73.0003 118.7 74.0003 118.6 75.0003 118.8C75.4003 118.933 75.767 119.1 76.1003 119.3C76.6336 119.5 77.2003 119.601 77.8003 119.601C79.4003 119.501 81.2003 118.6 82.4003 117.4C83.2003 116.6 83.7003 115.8 83.7003 114.9C83.767 114.7 83.767 114.534 83.7003 114.4Z" fill="#8FB122"/>
<path d="M84.6 106.7C84.4667 106.567 84.3333 106.467 84.2 106.4C83.6 106.2 82.8 106.5 82.2 106.4C79.5 106.3 76.8 106.4 74.2 106.4C72.4667 106.4 70.7 106.4 68.9 106.4C67.7667 106.4 66.6333 106.4 65.5 106.4C65 106.4 64.3 106.3 63.9 106.4C63.7667 106.4 63.6333 106.433 63.5 106.5C63.2 106.7 63 107.1 63 107.9C63 108.3 63.0667 108.667 63.2 109C63.2 109.067 63.2333 109.167 63.3 109.3C63.3 109.367 63.3333 109.433 63.4 109.5C63.5333 109.633 63.7 109.733 63.9 109.8C64.3 110.1 64.9 110.101 65.6 110.101C69.8 110.034 74 110.034 78.2 110.101C79.6 110.101 80.9667 110.101 82.3 110.101C82.5667 110.101 82.8 110.101 83 110.101C83.8 110.001 84.3 109.8 84.6 109.3C84.8 109 84.9 108.5 84.9 107.9C84.9 107.4 84.8 107.1 84.7 106.9C84.7 106.834 84.6667 106.767 84.6 106.7Z" fill="#8FB122"/>
<path fill-rule="evenodd" clip-rule="evenodd" d="M107.4 63.2997C107.3 71.5997 104.6 78.9005 99.2001 85.1005C92.6001 92.8005 88.0001 101 88.1001 111.6C88.2001 119.3 82.8001 124 75.1001 124.3C66.4001 124.7 60.2001 120.7 60.1001 112.7C59.9001 101 54.7001 92.0999 47.6001 83.4999C38.4001 72.2999 38.2001 56.0997 46.5001 44.2997C54.8001 32.1997 70.0001 27.0003 83.9001 31.4003C98.0001 35.8003 107.4 48.5997 107.4 63.2997ZM83.7001 114.9C83.7667 114.7 83.7667 114.534 83.7001 114.4C83.7001 114.267 83.6334 114.167 83.5001 114.1C83.3001 113.9 83.0001 113.9 82.7001 113.9C78.8334 113.9 74.9667 113.9 71.1001 113.9C69.1667 113.9 67.2334 113.9 65.3001 113.9C65.1001 113.9 64.9334 113.933 64.8001 114C64.5334 114.067 64.3667 114.233 64.3001 114.5C64.3001 114.567 64.3001 114.6 64.3001 114.6C64.3001 114.8 64.3001 115 64.3001 115.2C64.8001 117.4 67.2001 119 69.5001 119.3C69.9001 119.366 70.3001 119.366 70.7001 119.3C71.1001 119.3 71.4667 119.234 71.8001 119.1C71.8667 119.034 71.9334 119 72.0001 119C73.0001 118.7 74.0001 118.6 75.0001 118.8C75.4001 118.933 75.7667 119.1 76.1001 119.3C76.6334 119.5 77.2001 119.6 77.8001 119.6C79.4001 119.5 81.2001 118.6 82.4001 117.4C83.2001 116.6 83.7001 115.8 83.7001 114.9ZM84.7001 106.9C84.7001 106.834 84.6667 106.767 84.6001 106.7C84.4667 106.567 84.3334 106.467 84.2001 106.4C83.6001 106.2 82.8001 106.5 82.2001 106.4C79.5001 106.3 76.8001 106.4 74.2001 106.4C72.4667 106.4 70.7001 106.4 68.9001 106.4C67.7667 106.4 66.6334 106.4 65.5001 106.4C65.0001 106.4 64.3001 106.3 63.9001 106.4C63.7667 106.4 63.6334 106.433 63.5001 106.5C63.2001 106.7 63.0001 107.1 63.0001 107.9C63.0001 108.3 63.0667 108.667 63.2001 109C63.2001 109.067 63.2334 109.166 63.3001 109.3C63.3001 109.366 63.3334 109.433 63.4001 109.5C63.5334 109.633 63.7001 109.733 63.9001 109.8C64.3001 110.1 64.9001 110.1 65.6001 110.1C69.8001 110.034 74.0001 110.034 78.2001 110.1C79.6001 110.1 80.9667 110.1 82.3001 110.1C82.5667 110.1 82.8001 110.1 83.0001 110.1C83.8001 110 84.3001 109.8 84.6001 109.3C84.8001 109 84.9001 108.5 84.9001 107.9C84.9001 107.4 84.8001 107.1 84.7001 106.9ZM89.2001 70.2001C89.2001 69.2667 89.2001 68.3666 89.2001 67.4999C89.2001 66.6999 89.5001 66.4003 90.2001 66.4003C91.0667 66.4669 91.9001 66.4669 92.7001 66.4003C93.8001 66.4003 94.6001 65.6005 94.6001 64.6005C94.7001 63.5005 93.9001 62.7005 92.7001 62.6005C91.9001 62.6005 91.0667 62.6005 90.2001 62.6005C89.5001 62.6005 89.2001 62.3005 89.2001 61.6005C89.2001 60.7005 89.2001 59.8999 89.2001 58.9999C89.1001 57.9999 89.6001 57.7001 90.5001 57.7001C91.3001 57.7001 92.2001 57.8005 93.0001 57.6005C94.0001 57.4005 94.7001 56.8005 94.6001 55.6005C94.6001 54.6005 93.8001 53.8997 92.7001 53.7997C92.3001 53.6997 91.8001 53.7997 91.3001 53.7997C89.4001 53.6997 89.2001 54.0001 89.2001 51.7001C89.2001 50.3001 88.5001 49.5997 87.3001 49.2997C86.5001 49.1997 85.5001 49.8003 84.9001 48.9003C84.5001 48.2003 84.8001 47.2003 84.8001 46.4003C84.8001 46.2669 84.8001 46.1332 84.8001 45.9999C84.7001 44.6999 83.8001 43.7997 82.7001 43.7997C81.6001 43.7997 80.8001 44.6999 80.8001 45.9999C80.7001 49.3999 80.7001 49.3997 77.2001 49.2997C76.3001 49.2997 75.8001 49.1005 75.9001 48.1005C75.9667 47.3671 75.9667 46.6666 75.9001 45.9999C75.8001 44.6999 74.9001 43.7001 73.9001 43.7001C72.8001 43.8001 72.0001 44.7003 71.9001 45.9003C71.9001 46.8003 71.9001 47.6003 71.9001 48.4003C71.9001 49.0003 71.6001 49.2997 71.0001 49.2997C70.0001 49.2997 68.9667 49.2997 67.9001 49.2997C67.3001 49.2997 67.0001 49.0003 67.0001 48.4003C67.0001 47.5003 67.1001 46.6001 67.0001 45.7001C66.9001 44.6001 66.3001 43.9997 65.2001 43.7997C64.3001 43.5997 63.3001 44.3999 63.1001 45.4999C63.0001 45.9999 63.1001 46.6001 63.1001 47.2001C63.1001 49.4001 63.2001 49.2997 61.0001 49.2997C59.6001 49.2997 58.9001 50.0001 58.7001 51.2001C58.5001 52.0001 59.1001 53.1005 58.2001 53.6005C57.5001 54.0005 56.5001 53.6997 55.6001 53.7997C55.5334 53.7997 55.4667 53.7997 55.4001 53.7997C54.0001 53.7997 53.2001 54.6001 53.2001 55.7001C53.2001 56.8001 54.0001 57.6001 55.3001 57.7001C56.1001 57.8001 56.8001 57.7001 57.6001 57.7001C58.0001 57.8001 58.5001 57.8001 58.5001 58.2001C58.7001 59.6001 59.0001 61.0001 58.4001 62.2001C58.0001 63.1001 56.8001 62.5005 55.9001 62.6005C55.7001 62.7005 55.5001 62.6005 55.3001 62.6005C54.0001 62.7005 53.2001 63.3999 53.2001 64.4999C53.2001 65.6999 54.0001 66.4003 55.3001 66.4003C58.7001 66.6003 58.7001 66.5999 58.6001 69.9999C58.6001 70.9999 58.3001 71.3997 57.3001 71.2997C56.4001 71.2997 55.4001 71.1999 54.5001 71.4999C53.5001 71.8999 53.1001 72.6001 53.2001 73.7001C53.3001 74.6001 54.0001 75.1997 55.0001 75.2997C55.5001 75.2997 56.1001 75.2997 56.7001 75.2997C58.6001 75.2997 58.6001 75.3005 58.6001 77.1005C58.7001 78.2005 58.9001 79.1005 60.0001 79.6005C60.5001 79.8005 61.2001 79.8001 61.8001 79.7001C62.8001 79.6001 63.1001 80.0999 63.1001 80.9999C63.0334 81.7999 63.0334 82.6003 63.1001 83.4003C63.2001 84.5003 64.2001 85.3997 65.1001 85.2997C66.2001 85.2997 67.0001 84.4001 67.0001 83.2001C67.0667 82.4667 67.0667 81.7003 67.0001 80.9003C67.0001 80.1003 67.3001 79.7001 68.2001 79.7001C69.0667 79.7667 69.9001 79.7667 70.7001 79.7001C71.6001 79.7001 72.0001 80.0003 71.9001 80.9003C71.9001 81.6336 71.9001 82.4001 71.9001 83.2001C72.0001 84.4001 72.9001 85.2997 74.0001 85.2997C74.9001 85.2997 75.8001 84.4001 75.9001 83.2001C75.9001 82.4001 75.9001 81.5997 75.9001 80.7997C75.9001 80.0997 76.2001 79.7001 76.9001 79.7001C77.8334 79.7667 78.8001 79.7667 79.8001 79.7001C80.5001 79.7001 80.8001 79.9997 80.8001 80.7997C80.7334 81.6664 80.7334 82.4997 80.8001 83.2997C80.9001 84.4997 81.7001 85.2997 82.8001 85.2997C83.3334 85.233 83.7667 85.0334 84.1001 84.7001C84.9001 83.9001 84.8001 82.7997 84.8001 81.7997C84.8001 79.7997 84.8001 79.8001 86.7001 79.7001C88.4001 79.7001 89.1001 79.0003 89.2001 77.4003C89.2001 77.0669 89.2001 76.6997 89.2001 76.2997C89.2001 75.5997 89.5001 75.2997 90.3001 75.2997C91.1001 75.2997 91.9001 75.2997 92.7001 75.2997C93.8001 75.1997 94.5001 74.6005 94.6001 73.6005C94.7001 72.5005 94.2001 71.7999 93.1001 71.4999C92.2001 71.1999 91.3001 71.2997 90.4001 71.2997C89.6001 71.2997 89.2001 71.0001 89.2001 70.2001Z" fill="white"/>
<path fill-rule="evenodd" clip-rule="evenodd" d="M85.2001 54.8008C85.2001 61.2674 85.2001 67.7674 85.2001 74.3008C85.3001 75.5008 84.8001 75.8008 83.6001 75.8008C80.4001 75.7008 77.2001 75.7012 73.9001 75.7012C70.7001 75.7012 67.4001 75.7008 64.2001 75.8008C63.0001 75.8008 62.6001 75.5008 62.6001 74.3008C62.6001 67.7674 62.6001 61.2674 62.6001 54.8008C62.6001 53.7008 62.9001 53.3008 64.0001 53.3008C70.6001 53.3008 77.2001 53.3008 83.8001 53.3008C84.9001 53.3008 85.2001 53.7008 85.2001 54.8008ZM80.3001 60.4014C80.3001 58.9014 79.6001 58.2012 78.1001 58.2012C75.3001 58.2012 72.5001 58.2012 69.7001 58.2012C68.3001 58.2012 67.5668 58.9008 67.5001 60.3008C67.4334 63.1008 67.4334 65.9012 67.5001 68.7012C67.5001 70.1012 68.3001 70.8008 69.7001 70.8008C71.1001 70.9008 72.5001 70.9014 73.9001 70.9014C75.3001 70.9014 76.7001 70.9014 78.1001 70.9014C79.6001 70.8014 80.3001 70.1012 80.3001 68.7012C80.3668 65.9012 80.3668 63.1347 80.3001 60.4014Z" fill="white"/>
</svg>
