<svg width="150" height="150" viewBox="0 0 150 150" fill="none" xmlns="http://www.w3.org/2000/svg">
<path d="M150 75C150 116.4 116.5 150 75 150C33.6 150 0 116.4 0 75C0 33.6 33.6 0 75 0C116.5 0 150 33.6 150 75Z" fill="#8FB122"/>
<path d="M72.6003 127.5C72.2003 127.4 71.7003 127.3 71.3003 127.1C70.1003 126.633 69.2336 125.834 68.7002 124.7C67.9002 123.2 66.7002 122.5 65.0002 122.5C63.7002 122.4 62.8003 121.6 62.6003 120.3C62.4003 119 63.4002 117.6 64.7002 117.5C64.9002 117.5 65.1336 117.5 65.4002 117.5C71.8669 117.5 78.3336 117.5 84.8003 117.5C85.9003 117.5 86.7003 117.9 87.3003 118.9C88.1003 120.5 87.0003 122.4 85.1003 122.5C84.0003 122.5 82.9003 122.8 82.1003 123.7C81.9003 123.967 81.7002 124.267 81.5002 124.6C80.7002 126.1 79.4003 127.1 77.6003 127.4C77.6003 127.4 77.5669 127.433 77.5002 127.5C75.8336 127.5 74.2003 127.5 72.6003 127.5Z" fill="white"/>
<path d="M75.5001 22.5C76.4001 22.8 77.2001 23.2999 77.4001 24.3999C77.4668 24.5999 77.5001 24.8 77.5001 25C77.5001 28.3333 77.5001 31.7001 77.5001 35.1001C77.5001 36.1001 77.0001 36.8003 76.1001 37.3003C75.2001 37.7003 74.3001 37.6 73.5001 37C72.9001 36.5 72.6001 35.9001 72.6001 35.1001C72.6001 31.7001 72.6001 28.2999 72.6001 24.8999C72.6001 23.7999 73.3001 22.9001 74.4001 22.6001C74.4668 22.6001 74.5334 22.5667 74.6001 22.5C74.8668 22.5 75.1667 22.5 75.5001 22.5Z" fill="white"/>
<path fill-rule="evenodd" clip-rule="evenodd" d="M85.2003 105C86.4003 105.2 87.2003 105.8 87.5003 107C87.8003 108.7 86.6003 110 84.8003 110C82.0003 110 79.2003 110 76.4003 110C72.667 110 68.967 110 65.3003 110C64.2003 110 63.3003 109.6 62.8003 108.5C62.1003 107 62.9003 105.4 64.5003 105.1C64.6003 105.1 64.7003 105 64.9003 104.9C64.7003 104 64.6003 103.1 64.4003 102.1C63.5003 98.5999 61.5003 95.6 59.3003 92.7C57.2003 90.1 55.1003 87.5997 53.1003 84.8997C50.9003 81.8997 49.5003 78.5001 49.0003 74.8001C48.7336 72.6001 48.7336 70.3666 49.0003 68.0999C49.4003 64.4999 50.5337 61.0997 52.4003 57.8997C55.0003 53.5664 58.5336 50.233 63.0003 47.8997C65.667 46.5664 68.467 45.6667 71.4003 45.2C73.667 44.9333 75.9003 44.9333 78.1003 45.2C82.767 45.7333 87.0003 47.4334 90.8003 50.3001C95.9003 54.1001 99.2003 59.1997 100.6 65.3997C101.4 68.733 101.534 72.0998 101 75.4998C100.4 78.5998 99.3003 81.3999 97.6003 84.0999C96.0003 86.4999 94.1003 88.6998 92.2003 90.9998C90.2003 93.3998 88.2003 95.9001 86.9003 98.8001C86.0337 100.667 85.467 102.6 85.2003 104.6C85.2003 104.667 85.2003 104.8 85.2003 105ZM69.5003 52.7C69.3003 52.4 69.3003 52 69.1003 51.7C68.6003 50.9 67.6003 50.5999 66.6003 51.0999C64.7337 51.8999 63.0003 52.9333 61.4003 54.2C57.6003 57.3 55.1003 61.1001 53.9003 65.8001C53.6003 66.8001 54.2003 67.6998 55.1003 67.9998C56.3003 68.3998 57.2003 67.7998 57.6003 66.4998C58.3337 63.6998 59.7003 61.1998 61.7003 58.9998C63.5003 56.9998 65.7003 55.4998 68.2003 54.4998C68.9336 54.1665 69.367 53.5667 69.5003 52.7Z" fill="white"/>
<path d="M75.0004 116.199C71.7337 116.199 68.4337 116.199 65.1004 116.199C63.9004 116.199 62.8004 115.399 62.6004 114.299C62.4004 112.899 63.0004 111.799 64.2004 111.399C64.6004 111.299 65.0004 111.199 65.4004 111.199C71.8671 111.199 78.3004 111.199 84.7004 111.199C86.3004 111.199 87.3004 111.999 87.5004 113.399C87.8004 114.799 86.6004 116.199 85.0004 116.199C81.667 116.199 78.3337 116.199 75.0004 116.199Z" fill="white"/>
<path d="M35.0003 72.5C33.4003 72.5 31.8336 72.5 30.3003 72.5C28.9003 72.5 28.0003 71.8002 27.7003 70.7002C27.2003 69.1002 28.4003 67.5 30.0003 67.5C33.3336 67.5 36.6669 67.5 40.0003 67.5C41.4003 67.5 42.5003 68.4999 42.5003 69.8999C42.6003 71.2999 41.5003 72.3999 40.4003 72.3999C38.6003 72.4999 36.8003 72.3999 35.0003 72.3999C35.0003 72.4666 35.0003 72.5 35.0003 72.5Z" fill="white"/>
<path d="M115.1 67.5C116.7 67.5 118.333 67.5 120 67.5C121.3 67.5 122.4 68.5002 122.5 69.7002C122.6 71.1002 121.8 72.2 120.3 72.5C120.167 72.5 120 72.5 119.8 72.5C116.667 72.5 113.5 72.5 110.3 72.5C109.2 72.5 108.2 72.0999 107.7 70.8999C107.1 69.3999 108.3 67.5 110 67.5C111.667 67.5 113.367 67.5 115.1 67.5Z" fill="white"/>
<path d="M97.3003 45.2007C97.3003 44.6007 97.5002 44.0005 98.0002 43.5005C100.4 41.1005 102.767 38.7337 105.1 36.4004C106.1 35.4004 107.6 35.4004 108.6 36.4004C109.6 37.3004 109.6 38.9004 108.7 39.9004C106.3 42.3004 103.9 44.6672 101.5 47.0005C100.8 47.8005 99.8003 48.0005 98.8003 47.5005C97.8003 47.1005 97.3003 46.3007 97.3003 45.2007Z" fill="white"/>
<path d="M109.4 101.6C109.3 102.8 108.9 103.6 108 104C107.2 104.5 106.3 104.4 105.5 103.9C105.3 103.766 105.133 103.633 105 103.5C102.667 101.233 100.367 98.9331 98.1 96.5998C97 95.4998 97 93.9996 98.2 92.8996C99 91.9996 100.5 91.9996 101.4 92.8996C103.867 95.2996 106.333 97.7332 108.8 100.2C109.2 100.6 109.4 101.2 109.4 101.6Z" fill="white"/>
<path d="M52.8004 45.0989C52.7004 46.2989 52.3003 46.9987 51.4003 47.3987C50.6003 47.8987 49.8003 47.7987 49.0003 47.3987C48.7337 47.2654 48.5337 47.0987 48.4003 46.8987C46.1337 44.6321 43.867 42.3656 41.6004 40.0989C40.5004 38.9989 40.4003 37.3987 41.5003 36.3987C42.4003 35.4987 43.9003 35.3991 44.9003 36.2991C47.3003 38.7658 49.7337 41.1989 52.2003 43.5989C52.6003 44.0989 52.8004 44.6989 52.8004 45.0989Z" fill="white"/>
<path d="M52.8002 94.6995C52.8002 95.4995 52.5001 96.0994 52.0001 96.5994C49.6668 98.9327 47.3668 101.233 45.1001 103.499C43.6001 104.899 41.3002 104.399 40.8002 102.499C40.6002 101.599 40.7002 100.799 41.3002 100.199C43.7668 97.7328 46.2334 95.2992 48.7001 92.8992C49.4001 92.1992 50.3001 91.9992 51.2001 92.3992C52.2001 92.8658 52.7335 93.6328 52.8002 94.6995Z" fill="white"/>
</svg>
