<svg width="151" height="151" viewBox="0 0 151 151" fill="none" xmlns="http://www.w3.org/2000/svg">
<path d="M150.556 75.4023C150.556 116.802 116.956 150.402 75.5562 150.402C34.0562 150.402 0.556152 116.802 0.556152 75.4023C0.556152 34.0023 34.0562 0.402344 75.5562 0.402344C116.956 0.402344 150.556 34.0023 150.556 75.4023Z" fill="#012063"/>
<path fill-rule="evenodd" clip-rule="evenodd" d="M90.556 121.603C85.756 119.403 81.0561 117.202 76.4561 114.902C75.8561 114.702 75.356 114.602 74.756 114.902C70.156 117.102 65.656 119.202 61.056 121.402C60.956 121.502 60.756 121.503 60.556 121.603C59.8894 120.469 59.2227 119.303 58.556 118.103C56.6894 114.703 54.8227 111.269 52.9561 107.803C52.6561 107.303 52.356 107.002 51.656 106.902C46.556 106.002 41.456 105.003 36.256 104.003C36.5227 101.803 36.7894 99.6023 37.056 97.4023C37.456 94.2023 37.856 91.1029 38.256 88.0029C38.256 87.7029 38.056 87.3029 37.856 87.0029C34.3227 83.2696 30.7894 79.5361 27.256 75.8027C27.156 75.7027 27.0561 75.6029 26.9561 75.5029C28.3561 73.9696 29.756 72.4357 31.156 70.9023C33.156 68.8023 35.056 66.6025 37.156 64.6025C38.256 63.6025 38.256 62.6027 38.056 61.3027C37.556 57.5027 37.056 53.8029 36.656 50.0029C36.456 49.0029 36.2893 47.969 36.156 46.9023C41.456 45.9023 46.656 44.9023 51.756 43.9023C52.456 43.8023 52.6561 43.5029 52.9561 43.0029C55.4561 38.4029 57.9561 33.9031 60.4561 29.2031C61.9227 29.9365 63.3894 30.6361 64.856 31.3027C68.1894 32.8361 71.4894 34.4029 74.756 36.0029C75.256 36.2029 75.656 36.2029 76.156 36.0029C80.956 33.7029 85.656 31.5031 90.556 29.2031C91.2894 30.6031 92.056 32.0363 92.856 33.5029C94.656 36.7029 96.356 39.9025 98.156 43.1025C98.356 43.4025 98.856 43.8023 99.256 43.9023C104.456 44.9023 109.656 45.8027 114.856 46.8027C114.589 49.0694 114.289 51.269 113.956 53.4023C113.556 56.6023 113.156 59.7023 112.756 62.9023C112.756 63.2023 113.056 63.6023 113.356 63.9023C116.856 67.7023 120.456 71.5023 124.156 75.4023C123.756 75.8023 123.389 76.2025 123.056 76.6025C119.756 80.1025 116.456 83.5029 113.256 87.0029C112.956 87.3029 112.756 87.8031 112.856 88.2031C113.456 93.2031 114.123 98.2361 114.856 103.303C114.856 103.803 114.756 104.003 114.256 104.103C109.189 105.036 104.123 106.003 99.056 107.003C98.756 107.003 98.356 107.403 98.156 107.703C95.756 112.036 93.3894 116.403 91.056 120.803C90.956 121.003 90.756 121.303 90.556 121.603ZM107.456 75.4023C107.056 57.0023 92.656 43.5025 75.356 43.6025C57.556 43.6025 42.056 58.7023 43.856 78.4023C45.156 94.0023 58.256 107.503 75.856 107.303C94.156 107.003 107.256 92.4023 107.456 75.4023Z" fill="white"/>
<path fill-rule="evenodd" clip-rule="evenodd" d="M101.356 75.5026C101.356 89.7026 89.7563 101.202 75.4563 101.302C61.2563 101.302 49.6562 89.602 49.6562 75.402C49.6562 61.102 61.4563 49.5022 75.6562 49.6022C89.8562 49.7022 101.356 61.2026 101.356 75.5026ZM74.1562 78.902C70.9562 76.202 67.8563 73.6026 64.6562 71.0026C63.3563 72.5026 62.1563 74.0022 60.8563 75.6022C65.5563 79.5022 70.2563 83.502 75.0563 87.402C80.8563 80.202 86.5563 73.1026 92.3563 66.0026C90.7563 64.7026 89.2563 63.5024 87.7563 62.3024C83.1563 67.8024 78.6562 73.302 74.1562 78.902Z" fill="white"/>
</svg>
