<svg width="151" height="151" viewBox="0 0 151 151" fill="none" xmlns="http://www.w3.org/2000/svg">
<path d="M150.261 75.7988C150.261 117.199 116.661 150.799 75.2607 150.799C33.7607 150.799 0.260742 117.199 0.260742 75.7988C0.260742 34.2988 33.7607 0.798828 75.2607 0.798828C116.661 0.798828 150.261 34.2988 150.261 75.7988Z" fill="#8FB122"/>
<path d="M115.661 58.2983C123.061 74.0983 120.861 97.2982 102.861 111.998C84.4608 126.998 58.2609 125.098 42.0609 108.798C25.4609 91.9983 24.5608 65.8983 39.2608 48.0983C54.2608 29.7983 77.4608 28.2984 92.4608 35.3984C91.1275 36.6651 89.8275 37.965 88.5609 39.2983C88.0609 39.6983 87.5608 40.0983 87.1608 40.5983C86.5608 41.3983 85.9609 41.3983 85.0609 41.0983C80.3942 39.6317 75.6275 39.1317 70.7608 39.5983C64.4608 40.2983 58.6608 42.2984 53.4608 45.8984C47.7608 49.6984 43.4609 54.6984 40.5609 60.8984C37.7609 66.6984 36.5609 72.8983 37.0609 79.2983C37.6609 88.6983 41.3609 96.6984 48.0609 103.398C51.9275 107.198 56.3942 110.032 61.4608 111.898C66.7275 113.832 72.1608 114.532 77.7608 113.998C85.4608 113.298 92.2608 110.398 98.2608 105.398C103.394 101.065 107.127 95.7317 109.461 89.3984C111.261 84.2984 111.961 78.9983 111.461 73.5983C111.261 70.6983 110.661 67.8984 109.761 65.1984C109.461 64.5984 109.661 64.1984 110.161 63.6984C111.861 62.0984 113.561 60.3984 115.161 58.6984C115.294 58.5651 115.461 58.4316 115.661 58.2983Z" fill="white"/>
<path d="M99.8609 64.3988C105.661 75.8988 102.961 91.0987 91.2608 99.7987C79.4608 108.399 63.4609 106.899 53.3609 96.2987C43.7609 85.9987 43.1608 69.7987 52.1608 58.7987C61.4608 47.4987 76.4608 45.8989 86.6608 51.1989C84.7275 53.1989 82.7608 55.1654 80.7608 57.0988C80.6608 57.1988 80.3608 57.2989 80.2608 57.1989C70.6608 54.2989 60.3609 58.5988 56.0609 67.5988C52.4609 74.7988 52.9609 81.8988 57.5609 88.5988C60.8609 93.3988 65.5609 96.1988 71.3609 97.0988C79.4609 98.2988 87.5609 94.4988 91.8609 87.3988C94.1609 83.5988 95.0608 79.4988 94.7608 75.0988C94.6608 73.7988 94.1608 72.3988 93.9608 71.0988C93.8608 70.7988 93.8609 70.4987 94.0609 70.2987C95.9609 68.3987 97.8609 66.3988 99.8609 64.3988Z" fill="white"/>
<path d="M121.561 44.8989C120.361 46.0989 119.161 47.1988 118.061 48.2988C114.127 52.2322 110.227 56.1321 106.361 59.9988C105.961 60.3988 105.661 60.5988 105.161 60.2988C103.161 59.5988 101.161 58.899 99.1608 58.199C98.8608 58.099 98.6608 58.0989 98.3608 58.3989C93.8941 62.8656 89.4274 67.3322 84.9608 71.7988C84.6608 72.0988 84.6608 72.2989 84.7608 72.5989C87.3608 79.1989 83.4608 86.4989 76.5608 87.8989C70.2608 89.1989 64.2608 85.0988 63.1608 78.7988C61.9608 72.6988 66.2608 66.699 72.4608 65.699C74.4608 65.3656 76.4275 65.5655 78.3608 66.2988C78.8608 66.4988 79.0608 66.3989 79.3608 66.0989C81.6941 63.7655 84.0275 61.3988 86.3608 58.9988C88.3608 57.0988 90.2608 55.099 92.2608 53.199C92.7608 52.699 92.8608 52.2989 92.6608 51.5989C91.8608 49.5989 91.1274 47.5654 90.4608 45.4988C90.3608 45.2988 90.4608 44.899 90.5608 44.699C93.4275 41.899 96.2941 39.0656 99.1608 36.199C101.227 34.0656 103.327 31.9322 105.461 29.7988C105.661 29.6988 105.761 29.4988 106.061 29.2988C107.061 32.3988 108.161 35.3989 109.261 38.3989C109.361 38.7989 109.661 39.1989 109.661 39.5989C109.861 40.5989 110.461 40.899 111.361 41.199C114.561 42.299 117.861 43.4989 121.161 44.5989C121.261 44.6989 121.361 44.6989 121.561 44.8989Z" fill="white"/>
</svg>
