<svg width="150" height="150" viewBox="0 0 150 150" fill="none" xmlns="http://www.w3.org/2000/svg">
<path d="M150 75C150 116.4 116.4 150 75 150C33.5 150 0 116.4 0 75C0 33.6 33.5 0 75 0C116.4 0 150 33.6 150 75Z" fill="#8FB122"/>
<path d="M127.3 83.2002C126.9 84.6002 126.6 85.9003 126.3 87.3003C126 88.7003 125.2 89.9004 124.2 90.9004C120.8 94.2004 117.5 97.6004 114.2 100.9C113.1 102 113.1 102.2 113.7 103.6C114.8 106 114.7 106.1 112.1 106.1C111.766 106.1 111.433 106.1 111.1 106.1C106.6 106.1 107.6 105.8 104.8 108.5C104 109.2 103.2 109.3 102.3 108.7C100.2 107.4 97.9998 106.2 95.8998 104.9C94.7998 104.2 93.6998 104 92.2998 104.3C87.3998 105.4 82.5998 106.3 77.6998 107.4C76.6998 107.6 75.7998 107.4 74.9998 106.9C69.5998 103.1 64.2331 99.3337 58.8998 95.6003C57.9998 95.0003 57.5998 94.2002 57.2998 93.2002C56.3665 89.9335 55.4331 86.6671 54.4998 83.4004C54.1665 82.2671 53.6998 81.2336 53.0998 80.3003C47.6331 72.0336 42.1998 63.8003 36.7998 55.6003C35.9998 54.5003 35.2998 53.6003 33.7998 53.8003C32.7998 54.0003 32.4998 54.3002 32.7998 55.2002C33.1998 56.3002 33.6998 57.5003 34.1998 58.6003C37.5331 66.9337 40.8998 75.2336 44.2998 83.5002C44.4331 83.8336 44.5665 84.2003 44.6998 84.6003C44.7998 84.8003 44.8998 85.1003 44.7998 85.3003C44.1998 86.5003 42.9998 86.7003 41.9998 87.1003C41.1998 87.4003 40.7998 86.7003 40.3998 86.1003C38.3331 82.567 36.2331 79.0336 34.0998 75.5002C34.0331 75.4336 33.9665 75.3335 33.8998 75.2002C31.6998 70.7002 28.3998 67.2004 24.6998 63.9004C24.4998 63.7671 24.2998 63.567 24.0998 63.3003C23.8998 63.1003 23.4998 62.9002 23.5998 62.5002C23.7998 62.1002 24.2998 62.3003 24.5998 62.3003C25.2998 62.3003 25.9998 62.3003 26.6998 62.3003C28.0998 62.3003 28.3998 61.9003 27.9998 60.6003C27.2998 57.7003 26.4998 54.9002 25.6998 52.0002C24.8998 49.0669 24.0998 46.1003 23.2998 43.1003C22.9998 41.8003 23.2998 41.4004 24.5998 41.4004C27.1998 41.4004 29.8331 41.4004 32.4998 41.4004C33.5998 41.4004 34.6998 41.8003 35.5998 42.6003C37.6998 44.3003 39.7998 45.9003 41.8998 47.6003C42.5998 48.2003 43.3998 48.4004 44.2998 48.4004C45.7998 48.4004 47.2998 48.4004 48.7998 48.4004C49.5998 48.5004 49.8998 48.2004 49.8998 47.4004C49.8998 45.3004 50.2998 45.0002 52.2998 45.0002C54.3665 45.0002 56.3998 45.0002 58.3998 45.0002C59.3998 44.9002 60.0998 45.3003 60.6998 46.1003C62.3998 48.2003 64.0998 50.3004 65.7998 52.4004C66.3998 53.3004 67.1998 53.6003 68.2998 53.6003C69.6998 53.5003 71.0998 53.6003 72.3998 53.6003C73.5998 53.5003 74.3998 54.0003 74.9998 54.8003C78.2665 59.267 81.5331 63.7003 84.7998 68.1003C85.1998 68.8003 85.2998 69.6004 85.2998 70.4004C85.1998 73.4004 84.9998 76.4002 85.2998 79.5002C85.6998 83.5002 86.3998 87.4004 88.4998 90.9004C90.5998 94.5004 93.6998 96.4004 97.8998 96.4004C101.6 96.4004 105.2 96.0003 108.4 94.1003C110.5 92.8003 111.9 91.0002 112.5 88.5002C113.1 86.0002 114.8 84.2002 116.2 82.2002C116.6 81.6002 117.3 81.4004 118 81.4004C120.666 81.4004 123.3 81.4004 125.9 81.4004C126.433 81.4004 126.9 81.5336 127.3 81.8003C127.3 82.267 127.3 82.7335 127.3 83.2002Z" fill="white"/>
</svg>
