<svg width="151" height="151" viewBox="0 0 151 151" fill="none" xmlns="http://www.w3.org/2000/svg">
<path d="M150.728 75.7578C150.728 117.158 117.128 150.758 75.728 150.758C34.228 150.758 0.728027 117.158 0.728027 75.7578C0.728027 34.3578 34.228 0.757812 75.728 0.757812C117.128 0.757812 150.728 34.3578 150.728 75.7578Z" fill="#012063"/>
<path d="M132.928 79.156C132.228 79.956 131.528 80.7564 130.828 81.5564C120.428 91.8564 110.128 102.256 99.828 112.656C98.128 114.256 96.4281 115.056 94.1281 115.056C90.4281 114.956 86.7281 115.056 83.0281 115.056C79.4281 114.956 78.2281 113.656 78.2281 110.056C78.2281 106.056 78.2281 102.156 78.2281 98.156C78.1281 96.556 78.728 95.2564 79.828 94.0564C90.628 83.2564 101.428 72.4556 112.228 61.7556C114.528 59.4556 116.128 59.5562 118.428 61.8562C123.295 66.6562 128.128 71.4556 132.928 76.2556C132.928 77.2556 132.928 78.2227 132.928 79.156Z" fill="white"/>
<path d="M74.2279 32.7563C84.3279 32.9563 94.2279 37.8568 101.828 47.3568C103.028 48.8568 103.528 50.4566 102.228 52.1566C100.828 53.9566 98.6278 53.8568 96.9278 51.8568C94.8278 49.5568 92.8279 47.3565 90.3279 45.4565C71.7279 31.5565 45.0279 42.6566 41.6279 65.6566C41.0279 69.7566 41.3279 73.7566 42.2279 77.6566C42.7279 79.6566 43.0278 79.6568 44.4278 78.3568C46.4278 76.3568 48.3279 74.3565 50.3279 72.4565C53.3279 69.5565 56.1278 70.3568 56.9278 74.3568C58.8612 83.8235 60.7612 93.2896 62.6279 102.756C63.3279 106.256 61.4279 107.956 57.8279 107.256C48.4945 105.456 39.1945 103.623 29.9278 101.756C28.3278 101.456 26.7279 100.957 26.2279 99.1566C25.7279 97.3566 26.6279 96.0568 27.8279 94.8568C30.6279 92.1568 33.3279 89.3566 36.1279 86.6566C37.2279 85.5566 37.5278 84.5565 36.9278 82.9565C29.9278 63.8565 39.3279 43.7565 56.7279 35.9565C61.6279 33.7565 66.7279 32.6563 74.2279 32.7563Z" fill="white"/>
</svg>
