<svg width="151" height="151" viewBox="0 0 151 151" fill="none" xmlns="http://www.w3.org/2000/svg">
<path d="M150.672 75.2715C150.672 116.671 117.072 150.271 75.6719 150.271C34.2719 150.271 0.671875 116.671 0.671875 75.2715C0.671875 33.8715 34.2719 0.271484 75.6719 0.271484C117.072 0.271484 150.672 33.8715 150.672 75.2715Z" fill="#012063"/>
<path fill-rule="evenodd" clip-rule="evenodd" d="M19.3721 76.0711C19.7721 74.8711 20.3721 73.7712 21.5721 73.1712C22.2721 72.7712 23.1721 72.5712 23.8721 72.3712C28.4054 71.1712 32.9054 69.9713 37.3721 68.7713C39.8721 68.0713 42.1722 69.3712 42.9722 71.8712C43.0388 72.0712 43.1055 72.3044 43.1721 72.5711C43.1721 72.9711 43.3721 72.9712 43.6721 72.8712C46.2721 72.1378 48.8387 71.438 51.3721 70.7713C54.1721 70.0713 56.8721 69.6713 59.7721 69.7713C61.7721 69.8713 63.6722 70.4712 65.4722 71.3712C68.4722 72.8712 71.5721 74.3712 74.5721 75.8712C79.5721 78.2045 84.5388 80.5713 89.4722 82.9713C90.9722 83.6713 92.4722 84.3712 93.9722 85.1712C96.8722 86.6712 98.2721 89.1713 98.6721 92.2713C98.6721 92.6046 98.6721 92.938 98.6721 93.2713C98.6721 93.5713 98.8721 93.6711 99.1721 93.5711C102.172 92.7711 105.172 91.9712 108.172 91.1712C112.272 90.0712 116.472 88.9712 120.572 87.8712C125.772 86.5712 130.772 89.7713 131.772 94.9713C131.839 95.1046 131.872 95.2378 131.872 95.3712C131.872 96.2378 131.872 97.1046 131.872 97.9713C131.872 98.1046 131.872 98.2378 131.872 98.3712C131.339 100.838 130.039 102.805 127.972 104.271C126.772 105.071 125.372 105.371 124.072 105.771C117.172 107.571 110.272 109.471 103.372 111.271C97.1721 112.871 91.1721 114.771 84.8721 116.171C83.8721 116.171 82.8721 116.171 81.8721 116.171C81.8054 116.171 81.7055 116.138 81.5721 116.071C76.0721 115.371 71.1721 113.271 66.6721 110.071C64.0721 108.171 61.8721 105.971 59.7721 103.571C59.4721 103.271 59.2721 103.171 58.8721 103.271C56.7387 103.871 54.5721 104.438 52.3721 104.971C51.8721 105.171 51.8722 105.171 51.9722 105.771C52.1722 106.371 52.4721 107.071 52.3721 107.871C52.1721 109.971 50.9721 111.471 48.8721 112.071C44.4721 113.204 40.1054 114.338 35.7721 115.471C34.9721 115.771 34.1721 116.071 33.3721 116.071C31.1721 116.171 29.3721 114.971 28.7721 112.771C28.1721 110.571 27.5722 108.371 26.9722 106.171C24.9055 98.5045 22.8721 90.8379 20.8721 83.1712C20.3387 81.4379 19.8387 79.6712 19.3721 77.8712C19.3721 77.2712 19.3721 76.6711 19.3721 76.0711ZM58.8721 73.3712C56.9721 73.3712 55.2721 73.5713 53.6721 73.9713C50.6721 74.7713 47.5721 75.5712 44.5721 76.3712C44.2721 76.4712 44.2721 76.6713 44.2721 76.9713C44.8721 79.1046 45.4721 81.2378 46.0721 83.3712C47.6055 89.3045 49.1721 95.2044 50.7721 101.071C50.8721 101.571 51.0722 101.671 51.4722 101.471C54.1388 100.805 56.7721 100.104 59.3721 99.3712C60.2721 99.1712 60.9721 99.3711 61.5721 100.071C63.0721 101.971 64.7721 103.771 66.5721 105.271C70.2721 108.471 74.4721 110.771 79.1721 111.971C81.6721 112.571 84.1721 112.771 86.7721 112.071C92.6721 110.371 98.5722 108.871 104.472 107.271C111.072 105.471 117.672 103.771 124.272 101.971C125.772 101.571 126.972 100.671 127.672 99.2713C128.672 97.1713 128.572 95.1713 127.172 93.2713C125.672 91.4713 123.772 90.8712 121.472 91.3712C119.872 91.7712 118.372 92.1712 116.872 92.6712C110.872 94.2712 104.839 95.8713 98.7721 97.4713C98.2721 97.5713 97.9721 97.8712 97.6721 98.3712C97.0721 99.3712 96.2721 100.171 95.2721 100.771C92.2721 102.771 89.0721 103.071 85.8721 101.471C81.9387 99.6046 78.0055 97.7046 74.0721 95.7713C72.2721 94.9046 70.4721 94.0379 68.6721 93.1712C67.7721 92.7712 67.3721 92.0713 67.5721 91.2713C67.7721 89.9713 68.9721 89.3713 70.2721 89.9713C76.0054 92.7046 81.7388 95.4713 87.4722 98.2713C88.8722 98.8713 90.2721 99.0711 91.7721 98.5711C93.4721 97.9711 94.5722 96.8712 94.9722 95.1712C95.0722 94.2712 95.0722 93.4711 94.9722 92.5711C94.7722 90.5711 93.8721 89.0712 91.8721 88.1712C86.7387 85.7045 81.5721 83.238 76.3721 80.7713C72.2721 78.7713 68.1721 76.8713 64.0721 74.7713C62.3721 73.8713 60.5721 73.2712 58.8721 73.3712ZM48.6721 107.571C48.6721 107.471 48.6721 107.371 48.6721 107.171C48.2721 105.771 47.8722 104.338 47.4722 102.871C45.6055 95.8712 43.7387 88.838 41.8721 81.7713C41.0721 78.838 40.2722 75.9378 39.4722 73.0711C39.2722 72.3711 38.9721 72.1713 38.2721 72.2713C33.5388 73.538 28.8388 74.8044 24.1721 76.0711C22.9721 76.4711 22.8721 76.6712 23.1721 77.8712C24.9055 84.2712 26.6387 90.6711 28.3721 97.0711C29.6387 101.871 30.9055 106.704 32.1721 111.571C32.4721 112.471 32.6721 112.571 33.5721 112.371C36.9055 111.438 40.2055 110.538 43.4722 109.671C45.0055 109.271 46.5388 108.871 48.0721 108.471C48.4721 108.371 48.6721 108.071 48.6721 107.571Z" fill="white"/>
<path fill-rule="evenodd" clip-rule="evenodd" d="M113.772 27.7715C114.672 27.9715 115.372 28.3714 115.972 29.1714C116.572 29.9047 116.872 30.7381 116.872 31.6714C116.872 41.6714 116.872 51.6714 116.872 61.6714C116.872 64.0714 115.172 65.7715 112.772 65.7715C108.772 65.7715 104.739 65.7715 100.672 65.7715C100.272 65.6715 99.9722 65.8714 99.6722 66.1714C97.2722 69.4714 94.8722 72.7713 92.4722 76.0713C91.6722 77.1713 90.2721 77.2714 89.3721 76.1714C86.9721 73.1047 84.5389 70.0381 82.0722 66.9714C81.9722 66.8714 81.8721 66.7714 81.8721 66.6714C81.3721 65.8714 80.7721 65.6714 79.8721 65.6714C75.9721 65.7714 72.0722 65.7715 68.1722 65.7715C66.1722 65.7715 64.6722 64.4714 64.2722 62.4714C64.2055 62.2048 64.2055 61.9046 64.2722 61.5713C64.2055 51.7046 64.2055 41.8047 64.2722 31.8713C64.2722 29.7713 65.1722 28.4715 67.1722 27.7715C67.2389 27.7715 67.2722 27.7715 67.2722 27.7715C82.8055 27.7715 98.3055 27.7715 113.772 27.7715ZM90.5722 31.3713C83.2389 31.3713 75.9389 31.3713 68.6722 31.3713C67.8722 31.3713 67.8721 31.3713 67.8721 32.0713C67.8721 41.8046 67.8721 51.5382 67.8721 61.2715C67.8721 62.0715 67.8722 62.0713 68.6722 62.0713C73.0055 62.0713 77.3055 62.0713 81.5722 62.0713C82.4722 62.0713 83.0722 62.3713 83.5722 63.0713C84.4722 64.1713 85.3722 65.2713 86.2722 66.3713C87.7388 68.1713 89.1722 69.9715 90.5722 71.7715C90.7722 72.0715 90.9722 72.0715 91.1722 71.7715C93.3055 68.8382 95.4056 65.938 97.4722 63.0713C97.9722 62.3713 98.5721 62.0713 99.3721 62.0713C103.705 62.0713 108.039 62.0713 112.372 62.0713C113.172 62.0713 113.272 62.0715 113.272 61.2715C113.272 51.5382 113.272 41.8381 113.272 32.1714C113.272 31.3714 113.172 31.3713 112.472 31.3713C105.139 31.3713 97.8389 31.3713 90.5722 31.3713Z" fill="white"/>
<path d="M90.5719 51.571C87.2719 51.571 84.6719 48.9711 84.6719 45.6711C84.6719 42.4711 87.2719 39.8711 90.5719 39.8711C93.8719 39.8711 96.3718 42.4712 96.3718 45.7712C96.3718 49.0712 93.8719 51.571 90.5719 51.571Z" fill="white"/>
<path d="M77.1721 51.571C73.8721 51.571 71.3721 49.0712 71.3721 45.7712C71.3721 42.4712 73.8721 39.8711 77.1721 39.8711C80.4721 39.8711 82.9721 42.4711 83.0721 45.6711C83.0721 49.0711 80.4721 51.571 77.1721 51.571Z" fill="white"/>
<path d="M103.872 51.571C100.672 51.571 98.0723 49.0712 98.0723 45.7712C98.0723 42.4712 100.572 39.8711 103.872 39.8711C107.172 39.8711 109.772 42.4711 109.772 45.6711C109.772 49.0711 107.172 51.571 103.872 51.571Z" fill="white"/>
</svg>
