<svg width="151" height="151" viewBox="0 0 151 151" fill="none" xmlns="http://www.w3.org/2000/svg">
<path d="M150.861 75.5C150.861 116.9 117.361 150.5 75.8608 150.5C34.4608 150.5 0.86084 116.9 0.86084 75.5C0.86084 34 34.4608 0.5 75.8608 0.5C117.361 0.5 150.861 34 150.861 75.5Z" fill="#8FB122"/>
<path d="M60.061 40.5987C62.061 40.5987 63.361 40.5987 64.661 40.5987C65.461 40.6987 65.761 40.3987 65.761 39.5987C65.6943 38.9987 65.6943 38.3989 65.761 37.7989C65.961 35.8989 68.061 34.7989 69.661 35.7989C73.5943 38.3989 77.4277 41.0655 81.161 43.7989C82.761 44.8989 82.661 46.8986 81.061 47.9986C77.3943 50.5986 73.661 53.1654 69.861 55.6988C67.961 56.9988 65.861 55.7986 65.761 53.4986C65.661 50.9986 65.661 50.9986 63.161 50.9986C59.361 50.9986 55.661 50.8986 51.961 51.9986C42.561 54.6986 35.461 63.3988 34.461 73.1988C33.261 86.0988 42.661 98.5989 56.761 99.7989C58.361 99.9989 60.061 99.8985 61.661 99.8985C62.561 99.8985 62.961 100.199 62.961 101.099C62.961 103.765 62.961 106.432 62.961 109.099C62.961 109.799 62.861 110.299 61.961 110.299C53.061 110.699 44.961 108.699 37.861 103.299C29.661 96.8989 24.961 88.5988 24.061 78.1988C22.561 60.2988 35.561 43.4985 54.261 40.8985C56.361 40.5985 58.561 40.5987 60.061 40.5987Z" fill="white"/>
<path d="M90.661 110.298C89.961 110.298 88.861 110.298 87.661 110.298C86.061 110.298 86.061 110.297 86.061 111.897C86.061 112.297 86.061 112.697 86.061 113.097C85.761 114.997 83.761 116.197 82.061 115.097C78.1943 112.497 74.361 109.864 70.561 107.198C68.961 105.998 69.161 103.998 70.961 102.798C73.961 100.664 76.9943 98.564 80.061 96.4974C80.661 95.9974 81.261 95.5976 81.961 95.1976C83.861 93.9976 85.861 95.1977 86.061 97.2977C86.161 99.8977 86.161 99.8973 88.761 99.8973C91.661 99.8973 94.561 100.097 97.361 99.4974C108.261 97.4974 116.161 88.7977 117.261 77.7977C118.561 64.8977 109.461 53.1977 96.561 51.2977C94.461 50.9977 92.461 50.9975 90.361 51.0975C89.461 51.0975 89.061 50.6973 89.061 49.8973C89.061 47.1639 89.061 44.4309 89.061 41.6976C89.061 40.9976 89.461 40.6975 90.261 40.5975C104.861 40.1975 116.061 45.9976 123.461 58.6976C130.761 71.0976 128.761 87.8974 119.061 98.4974C111.561 106.797 102.161 110.598 90.661 110.298Z" fill="white"/>
<path d="M91.061 90.2979C82.961 90.2979 76.261 83.4975 76.361 75.3975C76.361 67.1975 83.061 60.5977 91.461 60.5977C99.561 60.5977 106.261 67.4976 106.161 75.4976C106.061 83.7976 99.361 90.3979 91.061 90.2979Z" fill="white"/>
<path d="M49.061 75.3985C49.061 71.7319 49.061 68.0652 49.061 64.3985C49.061 61.7985 50.161 60.5987 52.761 60.5987C60.0944 60.5987 67.3944 60.5987 74.661 60.5987C75.061 60.5987 75.661 60.3989 75.861 60.7989C76.161 61.2989 75.561 61.5985 75.361 61.8985C68.561 69.8985 68.661 81.0988 75.361 89.1988C75.661 89.3988 76.161 89.6987 75.861 90.0987C75.661 90.4987 75.161 90.2989 74.861 90.2989C67.3944 90.2989 59.9277 90.2989 52.461 90.2989C50.261 90.2989 49.061 89.0989 49.061 86.7989C49.061 82.9989 49.061 79.1985 49.061 75.3985Z" fill="white"/>
</svg>
