<svg width="1715" height="587" viewBox="0 0 1715 587" fill="none" xmlns="http://www.w3.org/2000/svg">
<path opacity="0.7" d="M1713.8 586.601V65L1247.9 178.2L389.9 91.1006L0 191.5V586.601H1713.8Z" fill="#8FB122"/>
<g opacity="0.5">
<path d="M1682.53 42.5086C1679.43 29.7086 1676.33 17.2084 1673.23 4.30841C1674.03 4.10841 1674.73 4.00841 1675.33 3.80841C1679.83 2.80841 1684.23 1.6088 1688.73 0.708796C1692.03 0.00879592 1695.33 0.20821 1698.43 1.60821C1700.43 2.50821 1701.73 4.0088 1702.23 6.2088C1706.03 21.7088 1709.83 37.2082 1713.63 52.6082C1713.73 53.2082 1713.83 53.7084 1714.03 54.3084C1668.33 65.5084 1622.83 76.709 1577.03 87.909C1576.89 87.3757 1576.76 86.8417 1576.63 86.3084C1572.83 70.9084 1569.13 55.4086 1565.23 40.0086C1564.63 37.5086 1565.23 35.4086 1566.83 33.5086C1568.73 31.3086 1571.23 29.6084 1573.93 28.8084C1579.23 27.3084 1584.63 26.2084 1590.13 24.8084C1593.23 37.4084 1596.33 50.1084 1599.53 62.8084C1627.23 56.0084 1654.73 49.3086 1682.53 42.5086Z" fill="#8FB122"/>
<path d="M1610.73 11.9099C1613.6 11.2433 1616.46 10.5427 1619.33 9.80934C1624.93 8.40934 1629.83 11.2099 1631.33 16.9099C1632.93 23.0099 1634.33 29.2093 1635.83 35.3093C1637.13 40.8093 1633.93 46.3099 1628.23 47.4099C1622.53 48.6099 1616.93 50.1095 1611.23 51.5095C1605.63 52.9095 1600.63 50.1095 1599.23 44.5095C1597.56 38.3095 1596.03 32.076 1594.63 25.8093C1593.33 20.1093 1596.43 15.4091 1602.03 14.1091C1604.9 13.3758 1607.8 12.6433 1610.73 11.9099Z" fill="#8FB122"/>
<path d="M1635.53 25.6086C1634.73 22.5419 1633.96 19.4421 1633.23 16.3088C1631.93 10.9088 1634.93 6.00918 1640.33 4.70918C1646.26 3.17584 1652.23 1.70879 1658.23 0.308787C1663.53 -0.991213 1668.43 1.90918 1669.83 7.20918C1671.43 13.5425 1672.96 19.8419 1674.43 26.1086C1675.73 31.6086 1672.63 36.5088 1667.23 37.8088C1661.3 39.2755 1655.4 40.7086 1649.53 42.1086C1644.13 43.5086 1639.23 40.509 1637.83 35.009C1637.03 31.8757 1636.26 28.7419 1635.53 25.6086Z" fill="#8FB122"/>
<path d="M1676.63 36.3086C1676.93 37.4086 1677.13 38.4088 1677.43 39.5088C1652.53 45.6088 1627.73 51.7086 1602.73 57.8086C1602.53 57.3086 1602.43 56.8086 1602.33 56.3086C1602.13 55.8086 1602.03 55.209 1601.93 54.709C1626.93 48.509 1651.73 42.5086 1676.63 36.3086Z" fill="#8FB122"/>
<path d="M1594.33 89.9089C1593.43 90.1089 1592.53 90.4085 1591.63 90.5085C1590.33 90.8085 1589.43 90.2083 1589.13 88.8083C1588.83 87.6083 1589.33 86.6083 1590.53 86.3083C1592.39 85.775 1594.26 85.3089 1596.13 84.9089C1597.43 84.7089 1598.33 85.4082 1598.63 86.6082C1598.93 87.9082 1598.33 88.9087 1597.03 89.2087C1596.16 89.4754 1595.26 89.7089 1594.33 89.9089Z" fill="#8FB122"/>
<path d="M1700.23 59.4081C1701.13 59.2081 1701.93 58.9075 1702.83 58.8075C1704.13 58.5075 1705.03 59.2081 1705.33 60.4081C1705.73 61.6081 1705.23 62.7077 1703.93 63.0077C1702.13 63.4744 1700.33 63.9415 1698.53 64.4081C1697.13 64.7081 1696.23 64.0079 1695.93 62.7079C1695.63 61.5079 1696.03 60.5073 1697.43 60.1073C1698.33 59.8073 1699.33 59.6081 1700.23 59.4081Z" fill="#8FB122"/>
</g>
</svg>
