<svg width="1714" height="730" viewBox="0 0 1714 730" fill="none" xmlns="http://www.w3.org/2000/svg">
<path opacity="0.7" d="M644 1.59985C654.5 1.59985 913 1.59985 923 1.59985H644C614 1.59985 655.4 1.59985 644 1.59985C822.5 1.59985 702.801 1.59985 644 1.59985L1183.5 0C1188.4 0 1192.6 1.19985 1197.4 3.09985L1300.9 26.8001C1307.2 28.1001 1311.3 27.8999 1316.3 27.8999H1688.5C1702.3 27.8999 1713.5 36.0999 1713.5 46.0999L1713.3 729.3H0L0.199707 19.8C0.199707 9.80005 11.1999 1.69985 24.8999 1.59985H614C813 1.59985 644 1.59985 644 1.59985Z" fill="#012063"/>
</svg>
