<svg width="1715" height="538" viewBox="0 0 1715 538" fill="none" xmlns="http://www.w3.org/2000/svg">
<g opacity="0.7">
<path d="M1258.2 116.665L387.9 39.8652L0 149.265L1.1 536.065L1713.3 537.265L1714.5 36.9648L1258.2 116.665Z" fill="#8FB122"/>
<path d="M143.1 86.5638C128.5 88.3638 113.9 90.1307 99.3002 91.8641C98.2002 92.0641 97.8002 92.4638 98.0002 93.5638C98.5002 96.8638 98.8002 100.264 99.2002 103.564C99.8002 107.964 100.367 112.331 100.9 116.664C116.567 114.731 132.234 112.797 147.9 110.864C147.9 110.264 147.867 109.697 147.8 109.164C146.9 101.864 146.1 94.6637 144.6 87.4637C144.4 86.4637 143.8 86.4638 143.1 86.5638Z" fill="#8FB122"/>
<path d="M199 84.7646C198.9 84.1646 198.6 83.8645 198 84.1645C197.4 84.3645 196.834 84.5646 196.3 84.7646C185.034 89.3646 173.767 93.931 162.5 98.4644C159.8 99.6644 157 100.165 154.1 99.6645C153 99.4645 152.8 99.7646 152.9 100.765C153.3 103.865 153.7 106.965 154.1 110.165C169.834 108.231 185.6 106.298 201.4 104.365C200.6 97.9647 199.834 91.5645 199.1 85.1645C199.1 85.0312 199.067 84.898 199 84.7646Z" fill="#8FB122"/>
<path d="M181.9 32.6648C180.4 34.6648 180.6 36.4646 182.5 37.9646C183.9 39.0646 185.2 40.2649 186.7 41.2649C187.6 41.8649 187.9 42.465 187 43.365C186.3 44.065 185.7 44.7647 185.2 45.5647C184.7 46.4647 184.2 46.465 183.3 45.865C178.8 42.265 174.3 38.6648 169.7 35.1648C168.5 34.2648 167.3 33.4646 165.8 32.9646C161.8 31.5646 158.1 33.1646 156.2 36.9646C155.6 38.3646 155.2 39.8646 154.9 41.4646C153.2 53.5646 151.4 65.6649 149.7 77.7649C149.2 81.3649 148.3 84.9646 148.5 86.9646C149.1 93.4646 152.1 96.065 156.8 95.865C158.4 95.765 159.9 95.3649 161.3 94.7649C174.3 89.4982 187.334 84.1983 200.4 78.865C202.2 78.165 204 77.4649 205.5 76.2649C209.5 73.2649 210.1 68.8646 207.1 64.9646C206.367 64.0312 205.5 63.165 204.5 62.365C200.834 59.4983 197.167 56.6315 193.5 53.7649C191.9 52.5649 191.9 52.5647 190.7 54.0647C188.1 57.4647 185.5 60.7647 182.9 64.0647C181.7 65.5647 179.7 65.8649 178.4 64.7649C178.2 64.5649 177.9 64.4648 178 64.1648C178.1 63.8648 178.4 63.865 178.6 63.865C179.5 63.665 180.1 63.1646 180.7 62.4646C185.5 56.2646 190.334 50.0979 195.2 43.9646C196.6 42.0646 196.4 40.265 194.6 38.865C193.1 37.665 191.6 36.3649 190 35.2649C189.3 34.7649 189.3 34.3648 189.8 33.6648C191.734 31.1981 193.667 28.7315 195.6 26.2649C196 25.7649 196.5 25.3649 197.2 25.2649C198.7 25.0649 199.8 24.3648 200.7 23.1648C204.4 18.4648 208.1 13.7647 211.7 9.06466C213.7 6.56466 213.4 3.26486 210.9 1.26486C208.4 -0.735142 205 -0.335142 203 2.26486C199.3 6.86486 195.7 11.4648 192 16.1648C191.1 17.2648 190.6 18.5647 190.8 20.0647C190.9 20.9647 190.6 21.5649 190.1 22.2649C187.367 25.7315 184.634 29.1981 181.9 32.6648Z" fill="#8FB122"/>
<path d="M93.0999 53.2652C93.2999 55.1652 93.2999 55.1649 95.1999 54.9649C102.4 54.0316 109.633 53.1319 116.9 52.2652C124.167 51.3986 131.433 50.4984 138.7 49.565C140.4 49.365 140.5 49.365 140.3 47.565C139.433 40.4984 138.567 33.432 137.7 26.3653C137.5 24.5653 137.4 24.5652 135.7 24.7652C121.1 26.5652 106.6 28.365 91.9999 30.065C90.6999 30.265 90.2999 30.665 90.4999 32.065C91.3999 39.065 92.1999 46.1652 93.0999 53.2652Z" fill="#8FB122"/>
<path d="M70.5002 87.5646C70.7002 88.8646 71.2002 89.1646 72.4002 89.0646C87.0002 87.1979 101.6 85.398 116.2 83.6647C117.6 83.5647 117.9 82.9647 117.7 81.6647C116.8 74.5647 116 67.5645 115.1 60.4645C114.9 58.6645 114.9 58.6649 113.1 58.8649C105.834 59.7982 98.5668 60.6979 91.3002 61.5646C84.1002 62.4313 76.8668 63.298 69.6002 64.1647C67.8002 64.4647 67.7002 64.4647 68.0002 66.1647C68.8002 73.2647 69.7002 80.4646 70.5002 87.5646Z" fill="#8FB122"/>
<path d="M147.5 54.6645C143.4 55.2645 139.2 55.6646 135.1 56.2646C130.8 56.7646 126.6 57.2646 122.4 57.7646C121.4 57.8646 121 58.2646 121.1 59.2646C122.033 66.598 122.933 73.9647 123.8 81.3647C123.9 82.3647 124.4 82.6644 125.4 82.5644C131.667 81.7644 137.9 80.998 144.1 80.2646C145 80.1646 145.4 79.7647 145.5 78.8647C146.633 71.1981 147.767 63.5643 148.9 55.9643C149 54.8643 148.7 54.5645 147.5 54.6645Z" fill="#8FB122"/>
<path d="M146.4 47.165C146.5 47.865 146.5 48.6648 147.6 48.4648C148.5 48.2648 149.9 48.865 150.1 47.165C150.3 45.465 150.6 43.865 150.8 42.165C151.2 39.565 151.7 36.9649 153 34.5649C155.1 30.8649 158.2 28.6648 162.6 28.4648C165.8 28.3648 168.7 29.5652 171.3 31.3652C172.8 32.4652 174.2 33.5651 175.7 34.7651C176.4 35.3651 176.9 35.5651 177 34.2651C177.1 32.7651 177.8 31.4651 178.8 30.2651C181.3 27.1651 183.7 23.9651 186.2 20.7651C186.6 20.2651 187 19.6648 186.7 18.9648C186.3 18.2648 185.6 18.6651 185.1 18.7651C178.433 19.5651 171.8 20.365 165.2 21.165C158.5 21.965 151.9 22.8649 145.2 23.5649C144 23.7649 143.5 24.0652 143.7 25.3652C144.6 32.6652 145.5 39.865 146.4 47.165Z" fill="#8FB122"/>
<path d="M197.5 48.5655C196.633 48.6988 196.067 49.1324 195.8 49.8657C195.5 50.6657 196.3 50.8656 196.8 51.2656C200.2 53.9656 203.7 56.6657 207.1 59.3657C210.7 62.2657 213.1 65.9656 212.9 70.7656C212.9 71.9656 213.6 71.7655 214.3 71.6655C217.2 71.3655 220.2 70.9655 223.1 70.6655C224.2 70.4655 224.6 70.0654 224.4 68.9654C223.467 61.6987 222.6 54.4322 221.8 47.1655C221.6 45.9655 221.1 45.6657 219.9 45.8657C216.3 46.3657 212.6 46.7655 208.9 47.1655C205.1 47.6322 201.3 48.0988 197.5 48.5655Z" fill="#8FB122"/>
</g>
</svg>
