<svg width="1714" height="1094" viewBox="0 0 1714 1094" fill="none" xmlns="http://www.w3.org/2000/svg">
<path opacity="0.7" d="M360 0.201962H377.5C406.1 0.201962 377.5 0.201962 406.1 0.201962L509.1 0C520.6 0 509.1 0.000429885 520.1 0.0027504L544.6 0.000287056C568.1 0.00194931 544.6 0.000287055 568.1 0.00194931L1183.5 1.802C1188.5 1.802 1192.7 3.50196 1197.5 6.00196L1300.9 38.5019C1307.2 40.3019 1311.3 40.102 1316.3 40.102H1688.6C1702.4 40.102 1713.6 51.302 1713.6 65.102L1713.4 1067.7C1713.4 1081.5 1702.2 1092.7 1688.4 1092.7H25C11.2 1092.7 0 1081.5 0 1067.7L0.200001 28.902C0.200001 15.3019 11.3 4.10198 24.9 3.90198L342.6 0.201962C360 0.201962 342.6 0.201962 360 0.201962Z" fill="#012063"/>
<path d="M1713.5 528L1242.07 652.1L373.222 596.8L0 728.8V1093.2H1713.6L1713.5 528Z" fill="white"/>
<path opacity="0.7" d="M1688.4 529.659L1245.27 646.359C1243.17 646.859 1241.07 647.059 1238.87 646.959L377.322 592.159C374.622 591.959 371.922 592.359 369.422 593.259L13.3008 719.159C5.30031 721.959 0 729.559 0 737.959V1068.26C0 1079.26 9.00052 1088.26 20.0012 1088.26H1693.6C1704.6 1088.26 1713.6 1079.26 1713.6 1068.26L1713.5 548.959C1713.5 535.859 1701.1 526.359 1688.4 529.659Z" fill="#8FB122"/>
</svg>
