<svg width="1714" height="719" viewBox="0 0 1714 719" fill="none" xmlns="http://www.w3.org/2000/svg">
<path opacity="0.7" d="M1247.7 0.29993L1550.5 0.300044L1334.7 0.299927L1362.2 0.300044H1550.5C1550.5 1.50004 1547.5 0.794125 1550.5 0.300044C1546 1.04117 1546 1.04116 1550.5 0.300044L1662.6 28.3998C1668.9 29.6998 1673 29.4999 1677.9 29.4999H1689C1702.8 29.4999 1714 37.6998 1714 47.6998L1713.8 593.2C1713.8 603.2 1702.6 611.4 1688.8 611.4L1232.4 666.6L370.601 622.9L25.5 718.3C11.7 718.3 0.5 710.2 0.5 700.1L0.700195 21.3998C0.700195 11.3998 11.7004 3.29983 25.4004 3.19983L1224.3 0.499881C1234.1 0.399881 1232.4 0.29993 1247.7 0.29993Z" fill="#012063"/>
</svg>
