<svg width="1714" height="729" viewBox="0 0 1714 729" fill="none" xmlns="http://www.w3.org/2000/svg">
<path opacity="0.7" d="M373.2 596.596L1242.1 651.796L1713.4 527.796L1713.5 65.2959C1713.5 51.4959 1702.3 40.2959 1688.5 40.2959H1316.3C1311.3 40.2959 1307.2 40.5959 1300.9 38.7959L1197.4 6.29589C1192.6 3.69589 1188.5 1.99585 1183.5 1.99585L568.1 0.295898C529.5 0.497093 568.1 0.295899 529.5 0.497094L509.5 0.298114C529.5 0.497786 521 0.497094 509.5 0.497094L415 0.495851C399 0.495851 415 0.495851 399 0.495851H369C342.6 0.495851 369 0.495851 342.6 0.495851L24.9001 4.1958C11.2001 4.3958 0.2001 15.4958 0.2001 29.1958L0.100098 728.496L373.2 596.596Z" fill="#012063"/>
</svg>
