<svg width="30" height="331" viewBox="0 0 30 331" fill="none" xmlns="http://www.w3.org/2000/svg">
<path d="M27.5 109.399C27.5 116.399 21.7998 122.1 14.7998 122.1C7.6998 122.1 2 116.399 2 109.399C2 102.299 7.6998 96.5996 14.7998 96.5996C21.7998 96.5996 27.5 102.299 27.5 109.399Z" stroke="white" stroke-width="4" stroke-miterlimit="10"/>
<path d="M14.8008 122.1V303.5" stroke="white" stroke-width="4" stroke-miterlimit="10"/>
<path d="M27.5 316.2C27.5 323.2 21.7998 328.9 14.7998 328.9C7.6998 328.9 2 323.2 2 316.2C2 309.2 7.6998 303.5 14.7998 303.5C21.7998 303.5 27.5 309.2 27.5 316.2Z" stroke="white" stroke-width="4" stroke-miterlimit="10"/>
<path d="M14.8008 96.6001V0" stroke="white" stroke-width="4" stroke-miterlimit="10"/>
</svg>
