<svg width="33" height="33" viewBox="0 0 33 33" fill="none" xmlns="http://www.w3.org/2000/svg">
<path fill-rule="evenodd" clip-rule="evenodd" d="M0.299988 8.89997C0.399988 8.19997 0.500012 7.49997 0.700012 6.89997C1.20001 4.79997 2.19999 3.00016 3.79999 1.60016C5.19999 0.400165 7.2 0.500018 8.5 1.70002C10.0333 3.23335 11.5333 4.76678 13 6.30012C14.4 7.70012 14.4 9.70016 13.1 11.1002C12.6 11.7002 12 12.2001 11.5 12.8001C11.4 12.8001 11.3 12.9 11.2 12.9C12.8 15.9 14.7 18.3 17.4 20.2C18.2 20.8 19.2 21.4 20 21.9C20.2 22 20.3 22 20.4 21.9C20.9334 21.3666 21.4667 20.8334 22 20.3001C23.5 18.8001 25.6 18.8001 27 20.3001C28.5 21.7001 29.9 23.2002 31.3 24.6002C32.9 26.0002 32.7 28 31.7 29.4C30.3 31.4 28.3 32.5001 25.9 32.8001C24.2 32.9001 22.7 32.6 21.1 32.2C17.9 31.3 15 29.7002 12.4 27.6002C8.70002 24.7002 5.6 21.4001 3 17.5001C1.8 15.8001 0.9 14 0.5 11.9C0.433333 11.4333 0.366654 10.9667 0.299988 10.5001C0.299988 9.96673 0.299988 9.4333 0.299988 8.89997ZM2.29999 9.89997C2.29999 10.3 2.30002 10.9 2.40002 11.4C2.80002 13.4 3.69999 15.1002 4.79999 16.6002C7.19999 20.1002 10.1 23.2 13.4 25.9C15.8 27.8 18.4 29.3 21.4 30.2C23 30.7 24.6 31 26.3 30.7C27.9667 30.3667 29.2667 29.5002 30.2 28.1002C30.6667 27.3668 30.6 26.6667 30 26.0001C28.5333 24.6001 27.0666 23.1667 25.6 21.7C24.9 21 24.1 21 23.4 21.7C22.8 22.3 22.2 22.9335 21.6 23.6002C20.9 24.2002 20.2 24.3 19.5 23.9C18.5 23.4 17.6 22.8 16.7 22.2C13.5 20 11.1 17.2001 9.40002 13.8001C9.00002 13.0001 9.10001 12.3 9.70001 11.7C10.3 11.1 10.9333 10.4668 11.6 9.80012C12.2 9.20012 12.2 8.30002 11.6 7.70002C10.1333 6.16668 8.63331 4.66668 7.09998 3.20002C6.49998 2.60002 5.80001 2.60016 5.20001 3.10016C4.93335 3.30016 4.66669 3.53345 4.40002 3.80012C2.90002 5.50012 2.29999 7.49997 2.29999 9.89997Z" fill="white"/>
</svg>
