<svg width="75" height="43" viewBox="0 0 75 43" fill="none" xmlns="http://www.w3.org/2000/svg">
<path d="M21.3915 27.7046C21.9915 27.6046 22.5915 27.5046 23.2915 27.3046C30.5915 25.2046 37.8915 23.0046 45.1915 20.9046C47.4915 20.2046 49.1915 19.0046 50.1915 16.7046C51.7915 13.0046 53.6915 9.50466 55.4915 6.00466C55.6915 5.40466 56.1915 4.90461 55.6915 4.20461C55.2915 3.60461 54.5915 3.70459 53.9915 3.80459C53.6582 3.80459 53.3248 3.80459 52.9915 3.80459C45.3915 3.90459 37.6915 4.00461 30.0915 4.20461C20.6248 4.33795 11.1915 4.50461 1.79149 4.70461C1.19149 4.70461 0.391511 4.60456 0.0915109 5.40456C-0.208489 6.10456 0.291517 6.60466 0.691517 7.00466C6.09152 13.2713 11.4915 19.5379 16.8915 25.8046C17.9915 27.1046 19.4915 27.7046 21.3915 27.7046Z" fill="#012063"/>
<path fill-rule="evenodd" clip-rule="evenodd" d="M6.7915 25.7046C10.1915 24.6046 14.1915 25.8046 16.1915 28.7046C16.6915 29.4046 17.0915 29.8046 17.9915 29.5046C28.1248 26.3713 38.2915 23.2713 48.4915 20.2046C49.2915 20.0046 49.7915 19.6046 50.1915 18.8046C52.7915 13.9046 55.4915 9.00461 58.0915 4.10461C58.4915 3.40461 58.8915 2.90457 59.6915 2.80457C63.9915 1.90457 68.2915 1.00461 72.5915 0.104615C74.0915 -0.295385 74.1915 0.504615 74.4915 1.60461C74.8915 2.80461 74.1915 3.00459 73.2915 3.20459C69.5915 3.90459 65.7915 4.70464 62.0915 5.50464C61.1915 5.60464 60.5915 6.00454 60.0915 6.90454C58.1915 10.6045 56.0915 14.3046 54.1915 18.0046C53.4915 19.5046 52.2915 20.8046 52.1915 22.5046C51.7915 28.5046 51.3915 34.5046 50.9915 40.5046C50.8915 42.0046 50.3915 42.6046 48.8915 42.6046C47.6915 42.7046 46.4915 42.6046 45.2915 42.7046C43.9915 42.8046 42.9915 42.2046 42.1915 41.3046C38.6915 37.4046 35.0915 33.6046 31.5915 29.8046C30.8915 29.1046 30.3915 28.9046 29.3915 29.2046C26.0582 30.3379 22.6915 31.3712 19.2915 32.3046C18.1915 32.6046 17.8915 33.1046 17.7915 34.1046C17.5915 38.7046 13.7915 42.3046 9.2915 42.1046C4.5915 42.0046 1.09152 38.4046 0.991516 33.8046C0.991516 30.1046 3.2915 26.8046 6.7915 25.7046ZM47.1915 23.9045C43.1915 25.1045 39.2915 26.3045 35.3915 27.4045C34.1915 27.8045 34.2915 28.1045 34.9915 28.9045C38.1249 32.1712 41.1915 35.4712 44.1915 38.8046C45.1915 39.9046 46.3915 39.6045 47.3915 39.4045C48.2915 39.2045 48.0915 38.1045 48.0915 37.4045C48.3915 33.3045 48.5915 29.3046 48.8915 24.5046C48.9915 23.4046 48.9915 23.3045 47.1915 23.9045ZM10.8915 33.7046C10.8915 32.8046 10.2915 32.2046 9.39151 32.2046C8.49151 32.2046 7.99152 32.8046 7.99152 33.7046C7.99152 34.6046 8.5915 35.0046 9.2915 35.1046C10.3915 35.1046 10.8915 34.6046 10.8915 33.7046Z" fill="#012063"/>
<path d="M10.0915 33.5046C9.69152 33.7046 9.79152 33.9046 10.0915 34.0046C10.0915 34.0713 10.0915 34.1046 10.0915 34.1046C10.0915 33.9046 10.0915 33.7046 10.0915 33.5046Z" fill="#012063"/>
<path d="M10.0916 32.9045C10.0916 33.1045 10.0916 33.3046 10.0916 33.5046C10.2249 33.3046 10.2249 33.138 10.0916 33.0046V32.9045Z" fill="#012063"/>
<path d="M10.2915 34.1046C10.2249 34.1046 10.1582 34.1046 10.0916 34.1046C10.0916 34.1046 10.0916 34.0713 10.0916 34.0046C10.0916 34.138 10.0916 34.2379 10.0916 34.3046C10.1582 34.2379 10.2249 34.138 10.2915 34.0046C10.2915 34.0713 10.2915 34.1046 10.2915 34.1046Z" fill="#012063"/>
</svg>
