<svg width="63" height="51" viewBox="0 0 63 51" fill="none" xmlns="http://www.w3.org/2000/svg">
<path fill-rule="evenodd" clip-rule="evenodd" d="M23.6132 6.21328C24.8132 5.31328 25.8131 4.4133 26.8131 3.6133C28.1131 2.5133 29.3132 1.51335 30.6132 0.413349C31.2132 -0.186651 31.6132 -0.0866512 32.1132 0.413349C35.4465 3.28002 38.7798 6.11335 42.1132 8.91335C48.1132 13.98 54.1132 19.0466 60.1132 24.1133C60.7798 24.6466 61.4131 25.2134 62.0131 25.8134C62.3131 26.0134 62.8132 26.2133 62.6132 26.6133C62.4132 27.0133 62.0131 26.8134 61.7131 26.8134C59.1131 26.88 56.5131 26.9133 53.9131 26.9133C52.2131 26.9133 52.2131 26.9133 52.2131 28.5133C52.2131 35.3133 52.2131 42.08 52.2131 48.8134C52.2131 50.1134 52.2131 50.1133 50.8131 50.2133C49.5131 50.3133 48.5131 49.9134 47.5131 48.8134C44.7131 45.9134 41.8131 43.1134 39.0131 40.3134C38.6131 39.9134 38.3131 39.4134 38.3131 38.8134C38.4131 38.2134 38.1131 37.7133 37.5131 37.5133C37.0131 37.3133 36.4131 37.4134 36.0131 37.8134C35.3131 38.7134 34.9131 38.5134 34.2131 37.8134C30.0131 33.6134 25.8132 29.4133 21.6132 25.2133C21.0132 24.6133 20.5131 23.9133 20.7131 22.9133C20.8131 22.5133 20.6131 22.3133 20.4131 22.1133C19.5464 21.2466 18.6465 20.3467 17.7131 19.4133C17.4131 19.0133 17.1131 18.9134 16.8131 19.3134C15.8131 20.3134 14.8131 21.2799 13.8131 22.2133C13.5131 22.5133 13.6131 22.8133 13.9131 23.1133C14.8464 23.98 15.7798 24.88 16.7131 25.8134C16.9131 26.1134 17.2132 26.2133 17.6132 26.1133C18.5132 25.7133 19.2131 26.1133 19.9131 26.7133C22.3131 29.1799 24.7798 31.6466 27.3131 34.1133C29.1131 35.9133 30.8131 37.7133 32.7131 39.4133C33.3131 40.1133 33.5131 40.5133 32.7131 41.1133C32.1131 41.6133 31.7132 42.2133 32.1132 42.9133C32.4132 43.6133 33.0131 43.9133 33.7131 43.7133C34.2131 43.6133 34.4131 43.9133 34.7131 44.2133C36.4465 45.8799 38.1465 47.5466 39.8131 49.2133C40.0131 49.4133 40.3131 49.6133 40.2131 50.0133C40.0131 50.3133 39.7131 50.2133 39.4131 50.2133C35.6798 50.2133 31.9798 50.2133 28.3131 50.2133C27.5131 50.2133 27.2132 50.0133 27.6132 49.2133C28.1132 48.2133 28.3131 47.2133 28.2131 46.1133C28.2131 45.4133 28.3131 44.8134 28.9131 44.4133C29.7131 43.6133 30.1132 42.6133 30.6132 41.5133C31.2132 40.0133 30.4131 39.5134 29.7131 38.8134C28.9131 38.0134 28.1131 37.3133 27.4131 36.5133C27.0131 36.0133 26.7131 36.0133 26.3131 36.5133C25.4131 37.3133 24.6131 38.2133 23.8131 39.0133C23.2131 39.6133 22.6131 39.9133 21.8131 39.9133C18.0131 39.9133 15.2131 42.5134 14.9131 46.3134C14.9131 46.6134 14.8132 46.9133 15.1132 47.1133C15.4132 47.2133 15.6131 46.9133 15.8131 46.7133C16.6798 45.9133 17.5131 45.0799 18.3131 44.2133C18.7131 43.7133 19.1132 43.7133 19.6132 44.2133C20.9132 45.5133 22.3131 46.9133 23.7131 48.2133C23.9131 48.5133 24.5131 48.7133 24.2131 49.2133C23.9131 49.7133 23.5131 50.2133 22.7131 50.2133C19.7131 50.2133 16.6132 50.2133 13.6132 50.2133C12.9132 50.2133 12.2131 50.2133 11.4131 50.2133C10.6131 50.2133 10.4131 49.9133 10.4131 49.1133C10.4131 47.2466 10.4131 45.3467 10.4131 43.4133C10.4131 38.3134 10.4131 33.2133 10.4131 28.1133C10.4131 27.2133 10.1132 26.8134 9.11317 26.8134C6.41317 26.9134 3.71307 26.9134 1.01307 26.8134C0.713075 26.8134 0.213075 27.0133 0.0130746 26.6133C-0.0869254 26.2133 0.413172 26.0133 0.613172 25.7133C3.81317 22.9799 7.04646 20.2467 10.3131 17.5133C10.8131 17.1133 11.0131 16.6133 11.0131 16.0133C11.0131 12.0133 11.0131 8.01332 11.0131 4.01332C11.0131 2.71332 11.0131 2.71328 12.4131 2.71328C15.7131 2.71328 19.0131 2.7133 22.3131 2.6133C23.3131 2.6133 23.7132 3.01335 23.6132 3.91335C23.6132 4.61335 23.6132 5.31328 23.6132 6.21328ZM42.0131 20.7133C41.8797 20.6466 41.7798 20.58 41.7131 20.5133C37.7131 20.0133 34.1131 23.4133 34.4131 27.4133C34.5131 28.0133 34.3131 28.5133 33.9131 28.9133C33.0464 29.7133 32.2131 30.5467 31.4131 31.4133C31.1131 31.7133 30.8131 32.0133 31.2131 32.4133C32.3465 33.5467 33.5131 34.68 34.7131 35.8134C34.9131 36.1134 35.2132 36.2133 35.6132 36.1133C36.9132 35.8133 38.2131 35.5134 39.0131 34.3134C39.4131 33.7134 40.0131 33.6133 40.8131 33.6133C44.4131 34.0133 48.0131 30.4134 47.7131 26.8134C47.7131 26.6134 47.7131 26.4134 47.5131 26.3134C47.3131 26.1134 47.1131 26.4133 47.0131 26.5133C46.1464 27.38 45.3465 28.2133 44.6132 29.0133C44.0132 29.6133 43.5131 29.8133 42.8131 29.0133C41.6131 27.68 40.3131 26.4133 38.9131 25.2133C38.3131 24.6133 38.2131 24.2133 38.9131 23.6133C39.9131 22.7133 40.9131 21.7133 42.0131 20.7133Z" fill="#012063"/>
</svg>
