<svg width="59" height="59" viewBox="0 0 59 59" fill="none" xmlns="http://www.w3.org/2000/svg">
<path d="M0.5 29.3C0.5 21.0334 0.5 12.8001 0.5 4.6001C0.5 3.6001 0.699976 2.70005 1.09998 1.80005C1.69998 0.800049 2.49998 0.400049 3.59998 0.300049C3.79998 0.300049 3.99995 0.300049 4.19995 0.300049C20.6 0.300049 37 0.300049 53.4 0.300049C55.3 0.300049 56.9 1 58 2.5C58.3333 3.03333 58.5 3.63338 58.5 4.30005C58.5 20.9667 58.5 37.6334 58.5 54.3C58.5 55.9 57.2 57.4 55.4 58C54.9334 58.2 54.4334 58.3 53.9 58.3C50.4334 58.3 46.9667 58.3 43.5 58.3C42.9 58.3 42.7 58.0999 42.7 57.3999C42.7 50.9332 42.7 44.4667 42.7 38C42.7 37.2 42.7 37.2 43.6 37.2C45.1333 37.2 46.6666 37.2 48.2 37.2C49.2 37.2 49.6 36.8999 49.9 35.8999C50.7 33.5666 51.5 31.2 52.3 28.8C52.7 27.4 52.1666 26.7 50.7 26.7C48.3666 26.7 46 26.7 43.6 26.7C42.7 26.7 42.7 26.7 42.7 25.8C42.7 23.7 42.7 21.7 42.7 19.7C42.7 18.3 43.3 17.4 44.4 16.8C45.3 16.3 46.2 16.1001 47.2 16.1001C48.6666 16.1001 50.1333 16.1001 51.6 16.1001C52.7 16.1001 53.2 15.6 53.2 14.5C53.2 12.0333 53.2 9.56676 53.2 7.1001C53.2 6.2001 52.7 5.6001 51.7 5.6001C48.9 5.7001 46.1 5.49995 43.3 5.69995C37.8 6.09995 32.9 10.8 32.3 16.2C32.1 17.9 32.3 19.5 32.2 21.2C32.2 22.7333 32.2334 24.2999 32.3 25.8999C32.3 26.4999 32 26.7 31.4 26.7C28.7334 26.7 26.0667 26.7 23.4 26.7C22.1 26.7 21.7 27.2 21.7 28.5C21.7 30.7667 21.7 33.0666 21.7 35.3999C21.7 36.6999 22.1 37.2 23.5 37.2C26.1 37.2 28.7334 37.2 31.4 37.2C32.2 37.2 32.2 37.2 32.2 38C32.2 44.4667 32.2 50.9332 32.2 57.3999C32.2 58.2999 32.2 58.3 31.4 58.3C22.3334 58.3 13.2666 58.3 4.19995 58.3C1.89995 58.3 0.7 57.1 0.5 54.8C0.5 54.4667 0.5 54.1 0.5 53.7C0.5 45.5666 0.5 37.4334 0.5 29.3Z" fill="white"/>
</svg>
