<svg width="56" height="57" viewBox="0 0 56 57" fill="none" xmlns="http://www.w3.org/2000/svg">
<path fill-rule="evenodd" clip-rule="evenodd" d="M27.9 0.600098C31.8333 0.600098 35.8 0.600098 39.8 0.600098C41.8667 0.600098 43.8667 0.933431 45.8 1.6001C47.6 2.3001 49.3 3.2001 50.8 4.6001C52.2 5.9001 53.4 7.39995 54.3 9.19995C55.1 10.9333 55.6 12.7666 55.8 14.7C56.1 16.7 55.9 18.6001 55.9 20.6001C56 25.4001 55.9999 30.2 55.9999 35C55.9999 37.3 56 39.5 55.9 41.8C55.9 42.8 55.6 43.8999 55.3 44.8999C54.3 48.4999 52.2333 51.3667 49.0999 53.5C47.0999 54.9 44.8 55.6 42.4 56C40.9 56.2 39.4999 56.2 38.0999 56.2C32.0333 56.2 25.9999 56.2 19.9999 56.2C18.8999 56.2 17.6999 56.2 16.5999 56.2C14.0999 56.1 11.7999 55.7 9.59992 54.7C6.89992 53.6 4.7999 51.8 3.1999 49.5C2.0999 48 1.49994 46.3 0.999945 44.5C0.699945 43.6 0.599945 42.6 0.499945 41.7C0.0999446 38.9 0.399993 36.1999 0.299993 33.3999C0.299993 29.6999 0.299993 26 0.299993 22.3C0.299993 19.9667 0.299993 17.6334 0.299993 15.3C0.299993 14.8 0.59992 14.4 0.59992 14C0.79992 12.7333 1.13325 11.4666 1.59992 10.2C2.06659 8.93328 2.69994 7.76662 3.49994 6.69995C4.16661 5.76662 4.93333 4.96672 5.79999 4.30005C7.19999 3.16672 8.7333 2.26676 10.4 1.6001C11.5 1.3001 12.4999 1.0999 13.5999 0.899902C15.1999 0.499902 16.7999 0.700098 18.4999 0.600098C21.5999 0.600098 24.7 0.600098 27.9 0.600098ZM5.6999 28.7C5.6999 31.7 5.6999 34.7 5.6999 37.7C5.6999 39.7 5.69999 41.8 6.29999 43.7C6.63333 44.9666 7.19994 46.1001 7.99994 47.1001C8.69994 48.2001 9.69997 48.9 10.9 49.5C12.4333 50.3 14.0332 50.7334 15.6999 50.8C17.0999 50.8 18.4 50.9 19.8 50.8C20.4 50.8 20.9999 50.9 21.6999 50.8C23.1999 50.7 24.7 50.9 26.3 50.8C26.8 50.8 27.3999 50.9 27.9999 50.8C29.4999 50.7 30.9999 50.9 32.4999 50.8C33.0999 50.8 33.7 50.9 34.3 50.8C35.8 50.7 37.3 50.9 38.9 50.8C39.8 50.7 40.8 50.8 41.8 50.7C43.9333 50.3666 45.8 49.5333 47.4 48.2C48.7 47.1 49.5999 45.7001 50.1999 44.1001C50.7999 42.5001 50.8 40.8 50.8 39.2C50.9 38 50.8 36.7 50.9 35.5C50.9 34.9 50.7 34.3 50.8 33.7C50.9 33.2 50.9 32.7001 50.9 32.1001C50.7 30.8001 50.9 29.5001 50.8 28.1001C50.8 26.9001 50.8 25.6 50.8 24.3C50.8 23.7 50.9 23.1001 50.9 22.6001C50.8 22.0001 50.7 21.5 50.8 21C51 19.7 50.8 18.3 50.8 17C50.9 15.7 50.7 14.4001 50.3 13.1001C49.6 10.9001 48.3999 9.10005 46.4999 7.80005C44.9999 6.80005 43.3999 6.3001 41.6999 6.1001C40.6999 5.96676 39.6666 5.8999 38.5999 5.8999C37.8999 5.9999 37.1 5.8999 36.4 5.8999C34.9 5.9999 33.3 5.8999 31.8 5.8999C30.3 5.8999 28.6999 5.9999 27.1999 5.8999C26.5999 5.8999 26 5.9999 25.4 5.8999C24 5.7999 22.7 5.8999 21.3 5.8999C19.8 5.8999 18.3 5.8999 16.8 5.8999C15.2 5.9999 13.5999 6.19995 12.1999 6.69995C10.7999 7.19995 9.6999 7.80005 8.6999 8.80005C7.4999 10 6.79999 11.3999 6.29999 12.8999C5.79999 14.1999 5.6999 15.5999 5.6999 16.8999C5.6999 20.8332 5.6999 24.7666 5.6999 28.7Z" fill="white"/>
<path fill-rule="evenodd" clip-rule="evenodd" d="M42.5 28.3C42.6 36.1 36.1001 42.8 27.8001 42.6C20.2001 42.5 13.7001 36.3999 13.8001 27.9999C13.9001 20.2999 20.1 13.9998 28 13.8998C35.9 13.7998 42.6 20.3 42.5 28.3ZM37.2 28.3C37.3 23.3 33.2 19.3999 28.5 19.1999C23.5 18.9999 18.8 23.1998 19.1 28.8998C19.4 33.3998 22.9001 37.1 27.8001 37.3C33.2001 37.5 37.3 33.1 37.2 28.3Z" fill="white"/>
<path d="M46.3001 13.6001C46.4001 15.5001 44.7 17 43.1 17C41.1 16.9 39.7 15.6001 39.7 13.6001C39.6 12.0001 41 10.4 43 10.3C44.8 10.3 46.4001 11.9001 46.3001 13.6001Z" fill="white"/>
</svg>
