<svg width="39" height="40" viewBox="0 0 39 40" fill="none" xmlns="http://www.w3.org/2000/svg">
<path fill-rule="evenodd" clip-rule="evenodd" d="M17.9 0.600098C18.9 0.600098 19.8667 0.600098 20.8 0.600098C22.1 0.700098 23.3 0.899951 24.5 1.19995C34 3.89995 40 13 38.6 22.8C38 26.6 36.5 30 33.9 32.8C29.1 38.1 23.1 40.3001 16 39.1001C8.9 37.8001 3.99999 33.6 1.29999 27C0.499988 25.2 0.2 23.2999 0 21.3999C0 20.4666 0 19.5 0 18.5C0.1 17.8 0.0999878 17.0999 0.299988 16.3999C1.83332 9.26657 5.99999 4.36662 12.8 1.69995C14.4 0.999951 16.2 0.700098 17.9 0.600098ZM19.3 36.8999C28.7 36.8999 36.3 29.4 36.3 20C36.4 10.6 28.8 3 19.4 3C10 3 2.50002 10.4999 2.40002 19.8999C2.40002 29.2999 9.89999 36.8999 19.3 36.8999Z" fill="white"/>
<path fill-rule="evenodd" clip-rule="evenodd" d="M19.4 11.2C23.3334 11.2 27.2667 11.2 31.2 11.2C31.9 11.2 32 11.3 32 12C32 17.8667 32 23.7 32 29.5C32 30.3 31.9 30.3 31.1 30.3C23.2333 30.3 15.3667 30.3 7.5 30.3C6.8 30.3 6.70001 30.3001 6.70001 29.6001C6.70001 23.7334 6.70001 17.8667 6.70001 12C6.70001 11.2 6.7 11.2 7.5 11.2C11.4333 11.2 15.4 11.2 19.4 11.2ZM28.8 13.3C28.7333 13.2334 28.7 13.2 28.7 13.2C28.6333 13.2 28.5667 13.2 28.5 13.2C22.5667 13.2 16.6333 13.2 10.7 13.2C10.5 13.2 10.3 13.1 10.2 13.3C10.1 13.4 10.4 13.5001 10.5 13.6001C13.1 16.3334 15.7334 19.0333 18.4 21.7C19.1 22.4 19.7 22.4001 20.4 21.6001C22.2 19.8668 24 18.1 25.8 16.3C26.8 15.3 27.8 14.3 28.8 13.3ZM28.7 28.3999C26.7 26.2999 24.8 24.3999 22.9 22.3999C22.7 22.1999 22.5 22.3 22.3 22.5C22.0333 22.7667 21.7334 23.0334 21.4 23.3C20.2 24.4 18.4 24.4 17.3 23.3C17.0333 23.0334 16.8 22.7667 16.6 22.5C16.3 22.2 16 22.2 15.7 22.5C13.9 24.3667 12.0667 26.2334 10.2 28.1001C10.2 28.2001 10.1 28.1999 10.1 28.3999C16.2 28.3999 22.4 28.3999 28.7 28.3999ZM8.59998 27C8.79998 26.9 8.80002 26.8 8.90002 26.7C10.7667 24.8333 12.6 22.9668 14.4 21.1001C14.8 20.8001 14.7 20.6 14.4 20.3C12.8 18.7 11.2 17.1 9.59998 15.5C9.29998 15.2 9.09998 14.9 8.59998 14.7C8.59998 18.8 8.59998 22.8 8.59998 27ZM30 14.8C29.9 14.8 29.9 14.8999 29.8 14.8999C28 16.7666 26.1667 18.6333 24.3 20.5C24 20.8 24.1 20.9 24.3 21.2C25.7667 22.6666 27.2333 24.1666 28.7 25.7C29.1 26.1 29.5 26.5 30 27C30 22.9 30 18.9 30 14.8Z" fill="white"/>
</svg>
