<svg width="26" height="26" viewBox="0 0 26 26" fill="none" xmlns="http://www.w3.org/2000/svg">
<path d="M21.4 24C21.2667 24 21.1334 24 21 24C14.8 24 8.59999 24 2.39999 24C1.59999 24 1.39999 23.8999 1.39999 23.0999C1.39999 16.8332 1.39999 10.5667 1.39999 4.30005C1.39999 4.23338 1.39999 4.16652 1.39999 4.09985C1.33332 4.16652 1.30001 4.23338 1.30001 4.30005C1.20001 4.60005 0.900002 4.79995 0.600002 4.69995C0.300002 4.59995 0.200014 4.3 0.300014 4C0.566681 3.33333 0.800026 2.66667 1.00003 2C1.20003 1.6 1.36669 1.20005 1.50003 0.800049C1.56669 0.533382 1.73336 0.399902 2.00003 0.399902C2.20003 0.399902 2.36669 0.533382 2.50003 0.800049C2.83336 1.66672 3.13332 2.53324 3.39999 3.3999C3.53332 3.5999 3.63337 3.8 3.70004 4C3.70004 4.3 3.60001 4.59985 3.30001 4.59985C3.10001 4.69985 2.80004 4.60005 2.70004 4.30005C2.63337 4.23338 2.56669 4.13333 2.50003 4C2.50003 4.13333 2.50003 4.23338 2.50003 4.30005C2.50003 10.3667 2.50003 16.4665 2.50003 22.5999C2.50003 22.8999 2.50001 22.8999 2.80001 22.8999C8.93335 22.8999 15.0667 22.8999 21.2 22.8999C21.2667 22.8999 21.3333 22.8999 21.4 22.8999C21.2667 22.8332 21.1334 22.7666 21 22.7C20.8 22.6 20.7 22.2999 20.8 22.0999C20.9 21.7999 21.2 21.7 21.4 21.8C22.5333 22.2 23.6334 22.6 24.7 23C24.9 23.0667 25 23.2333 25 23.5C25.0667 23.7 24.9667 23.8667 24.7 24C23.6334 24.4 22.5667 24.7665 21.5 25.0999C21.2 25.1999 20.9 25.1 20.8 24.8C20.7 24.6 20.8 24.3 21.1 24.2C21.1667 24.1333 21.2667 24.0999 21.4 24.0999C21.4 24.0332 21.4 24 21.4 24Z" fill="white"/>
<path d="M8.70001 11.3998C9.10001 10.9998 9.5 10.6998 10 10.5998C10.7 10.2998 11.9 10.4998 12.3 11.3998C12.4 11.5998 12.5 11.4998 12.5 11.3998C12.9 10.7998 13.4667 10.4999 14.2 10.4999C15.3 10.3999 16.1 10.7998 16.3 11.8998C16.3667 12.2331 16.4 12.5333 16.4 12.7999C16.4 13.9999 16.4 15.1998 16.4 16.3998C16.4 16.6998 16.4 16.6998 16.1 16.6998C15.7 16.6998 15.3 16.6998 14.9 16.6998C14.6 16.6998 14.6 16.6998 14.6 16.3998C14.6 15.3331 14.6 14.2665 14.6 13.1998C14.6 12.9332 14.5667 12.6999 14.5 12.4999C14.3667 12.1666 14.1333 11.9665 13.8 11.8998C13.4667 11.8331 13.1666 11.9332 12.9 12.1998C12.7 12.5332 12.6 12.8665 12.6 13.1998C12.6 14.2665 12.6 15.3666 12.6 16.4999C12.6 16.6999 12.5 16.6998 12.3 16.6998C11.9 16.6998 11.4667 16.6998 11 16.6998C10.8 16.6998 10.8 16.5998 10.8 16.3998C10.8 15.3331 10.8 14.2665 10.8 13.1998C10.8 12.9998 10.7667 12.7666 10.7 12.4999C10.5667 12.0999 10.3 11.8998 9.89996 11.8998C9.49996 11.8331 9.2 11.9998 9 12.3998C8.8 12.6998 8.70001 12.9998 8.70001 13.3998C8.70001 14.3998 8.70001 15.3998 8.70001 16.3998C8.70001 16.6998 8.69996 16.6998 8.39996 16.6998C7.99996 16.6998 7.60001 16.6998 7.20001 16.6998C6.90001 16.6998 6.89996 16.6998 6.89996 16.3998C6.89996 14.7998 6.89996 13.1666 6.89996 11.4999C6.89996 11.2999 6.89996 11.0666 6.89996 10.7999C6.89996 10.6666 6.96664 10.5998 7.09998 10.5998C7.56664 10.5998 8.03333 10.5998 8.5 10.5998C8.7 10.5998 8.70001 10.6998 8.70001 10.8998C8.70001 11.0331 8.70001 11.1998 8.70001 11.3998Z" fill="white"/>
<path d="M19.7 11.9C20.0334 11.9 20.3333 11.9 20.6 11.9C20.7333 11.9 20.8 11.9666 20.8 12.1C20.8 12.3 20.8 12.4666 20.8 12.6C20.8 12.7333 20.7333 12.8002 20.6 12.8002C19.6667 12.8002 18.7 12.8002 17.7 12.8002C17.6 12.8002 17.5 12.7 17.5 12.6C17.5 11.8 17.8 11.3002 18.4 10.8002C18.7 10.5002 19.1 10.3001 19.4 10.0001C19.6 9.80011 19.7 9.60016 19.7 9.30016C19.7 9.00016 19.5 8.80006 19.2 8.70006C18.8 8.70006 18.5 8.89996 18.2 9.09996C18.1 9.19996 18 9.20011 17.9 9.00011C17.7667 8.86678 17.6667 8.7333 17.6 8.59996C17.4667 8.5333 17.4667 8.46668 17.6 8.40001C18.3 7.90001 19.1 7.70011 19.9 8.00011C20.6 8.20011 20.9 8.89996 20.7 9.59996C20.6 10.1 20.3 10.5002 19.9 10.8002C19.6 11.0002 19.2 11.2001 19 11.5001C18.9 11.6001 18.7 11.7002 18.8 11.8002C18.8 11.9002 19 11.9 19.1 11.9C19.3 11.9 19.5 11.9 19.7 11.9Z" fill="white"/>
</svg>
