<svg width="42" height="23" viewBox="0 0 42 23" fill="none" xmlns="http://www.w3.org/2000/svg">
<path fill-rule="evenodd" clip-rule="evenodd" d="M20.7 16.8C15.6333 16.8 10.5667 16.8 5.5 16.8C5.1 16.8 5.09998 16.8 5.09998 17.2C5.09998 18.6666 5.09998 20.1332 5.09998 21.5999C5.09998 22.0999 4.89996 22.3 4.39996 22.3C3.26663 22.3 2.09996 22.3 0.899963 22.3C0.399963 22.3 0.299988 22.0999 0.299988 21.5999C0.299988 14.6665 0.299988 7.73338 0.299988 0.800049C0.299988 0.200049 0.499976 0 1.09998 0C2.16664 0.0666667 3.23332 0.0998535 4.29999 0.0998535C4.89999 0.0998535 5.09998 0.200049 5.09998 0.800049C5.09998 1.33338 5.09998 1.86657 5.09998 2.3999C5.09998 2.5999 5.19996 2.69995 5.39996 2.69995C6.3333 2.63328 7.2 2.79995 8 3.19995C9.5 3.89995 10.3 5 10.7 6.5C10.8333 6.96667 10.9 7.46667 10.9 8C10.9 8.2 11 8.30005 11.2 8.30005C11.2667 8.30005 11.3333 8.30005 11.4 8.30005C20.4 8.30005 29.3667 8.30005 38.3 8.30005C39.4333 8.23338 40.2667 8.69995 40.8 9.69995C41 10.0333 41.1 10.3666 41.1 10.7C41.1 14.3666 41.1 18.0333 41.1 21.7C41.1 22.0333 40.9333 22.2334 40.6 22.3C40.5333 22.3 40.4666 22.3 40.4 22.3C39.2666 22.3 38.1 22.3 36.9 22.3C36.4 22.3 36.3 22.0999 36.3 21.5999C36.3 20.1332 36.3 18.6666 36.3 17.2C36.3 16.7 36.3 16.8 35.8 16.8C30.7333 16.8 25.7 16.8 20.7 16.8ZM22.5 12.3C28.1667 12.3 33.8 12.3 39.4 12.3C39.5333 12.3 39.6333 12.3 39.7 12.3C39.9 12.3 40 12.2 40 12C40 11.8 40 11.6 40 11.3C40 11 40 10.6999 39.9 10.3999C39.7 9.7999 39.1 9.3999 38.3 9.3999C27.8333 9.3999 17.3333 9.3999 6.79999 9.3999C6.73332 9.3999 6.63333 9.3999 6.5 9.3999C5.8 9.3999 5.19998 9.99995 5.09998 10.7C5.09998 11.2 5.09998 11.5999 5.09998 12.0999C5.09998 12.2332 5.16665 12.3 5.29999 12.3C5.43332 12.3 5.53331 12.3 5.59998 12.3C11.2666 12.3 16.9 12.3 22.5 12.3ZM22.5 15.7C24.7 15.7 26.8667 15.7 29 15.7C32.5333 15.7 36.0666 15.7 39.6 15.7C40 15.7 40 15.7 40 15.3C40 14.7667 40 14.2667 40 13.8C40 13.5334 39.8666 13.3999 39.6 13.3999C39.6 13.3999 39.5667 13.3999 39.5 13.3999C28.1667 13.3999 16.8666 13.3999 5.59998 13.3999C5.53331 13.3999 5.46663 13.3999 5.39996 13.3999C5.19996 13.3999 5.09998 13.5 5.09998 13.7C5.09998 14.2333 5.09998 14.7667 5.09998 15.3C5.09998 15.7 5.1 15.7 5.5 15.7C11.1667 15.7 16.8333 15.7 22.5 15.7ZM1.39996 8.3999C1.39996 10.7332 1.39996 13.0334 1.39996 15.3C1.39996 15.6 1.50001 15.7 1.70001 15.7C2.36668 15.6333 3.03335 15.6333 3.70001 15.7C3.90001 15.7 4 15.5999 4 15.3999C4 10.7332 4 6.06657 4 1.3999C4 1.1999 3.90001 1.19995 3.70001 1.19995C3.03335 1.19995 2.39999 1.19995 1.79999 1.19995C1.39999 1.19995 1.39996 1.2 1.39996 1.5C1.39996 3.83333 1.39996 6.13324 1.39996 8.3999ZM9.70001 7.8999C9.70001 7.8999 9.73332 7.8999 9.79999 7.8999C9.73332 7.6999 9.70001 7.50005 9.70001 7.30005C9.50001 6.40005 9.30001 5.7 8.70001 5C7.80001 4 6.59999 3.80005 5.29999 3.80005C5.09999 3.80005 5.09998 3.9 5.09998 4C5.19998 5.1 5.50001 6.00005 6.20001 6.80005C7.10001 7.80005 8.29998 8.09995 9.59998 8.19995C9.73331 8.26662 9.79999 8.23319 9.79999 8.09985C9.73332 8.03319 9.70001 7.96657 9.70001 7.8999ZM40 19C40 18.3333 40 17.6667 40 17C40 16.8 39.9 16.8 39.7 16.8C39.0333 16.8 38.3667 16.8 37.7 16.8C37.5 16.8 37.4 16.8 37.4 17C37.4 18.3333 37.4 19.6332 37.4 20.8999C37.4 21.0999 37.5 21.2 37.7 21.2C38.3667 21.2 39.0333 21.2 39.7 21.2C39.9 21.2 40 21.0999 40 20.8999C40 20.2332 40 19.6 40 19ZM4 19C4 18.3333 4 17.6667 4 17C4 16.8 3.90001 16.8 3.70001 16.8C3.03335 16.8 2.36668 16.8 1.70001 16.8C1.50001 16.7 1.39996 16.7999 1.39996 17.0999C1.39996 18.3665 1.39996 19.6332 1.39996 20.8999C1.39996 21.0999 1.50001 21.2 1.70001 21.2C2.36668 21.2 3.03335 21.2 3.70001 21.2C3.90001 21.2 4 21.0999 4 20.8999C4 20.2332 4 19.6 4 19ZM5.09998 7.30005C5.09998 7.70005 5.09998 8.1 5.09998 8.5C5.09998 8.6 5.10001 8.69985 5.20001 8.59985C5.50001 8.49985 5.80001 8.40005 6.20001 8.30005C5.80001 8.00005 5.49998 7.60005 5.09998 7.30005Z" fill="white"/>
</svg>
