<svg width="62" height="54" viewBox="0 0 62 54" fill="none" xmlns="http://www.w3.org/2000/svg">
<path d="M28.6455 21.6885C32.0455 22.0885 34.3455 23.9885 36.0455 26.7885C36.3455 27.3885 36.5455 27.9885 35.9455 28.6885C33.4455 32.0885 31.0455 35.4886 28.5455 38.8886C28.3455 39.1886 28.1455 39.4885 27.9455 39.5885C26.2455 39.9885 25.5455 41.3885 24.6455 42.5885C22.2455 45.8552 19.8455 49.1552 17.4455 52.4886C16.9455 53.0886 16.4455 53.4886 15.6455 53.4886C14.1122 53.4219 12.5455 53.4219 10.9455 53.4886C9.9455 53.4886 9.74549 53.0885 9.74549 52.0885C9.74549 42.6885 9.74549 33.2886 9.74549 23.8886C9.74549 21.3886 9.74549 21.3886 7.24549 21.3886C5.24549 21.3886 3.27886 21.3886 1.34552 21.3886C0.745524 21.3886 0.245536 21.3885 0.0455363 20.7885C-0.154464 20.1885 0.345487 19.8885 0.745487 19.5885C8.74549 14.2552 16.7789 8.95519 24.8455 3.68852C26.5455 2.58852 28.2455 1.4885 29.9455 0.288499C30.6455 -0.111501 31.1455 -0.111403 31.8455 0.388597C40.3789 6.05526 48.9455 11.6885 57.5455 17.2885C58.6789 18.0885 59.8455 18.8552 61.0455 19.5885C61.4455 19.8885 61.8455 20.1885 61.7455 20.7885C61.5455 21.3885 60.9455 21.3886 60.4455 21.3886C58.0455 21.3886 55.5455 21.3886 53.1455 21.3886C52.3455 21.3886 51.9455 21.5886 52.0455 22.4886C52.0455 23.5886 52.0455 24.6885 52.0455 25.7885C52.0455 26.3885 51.7455 26.6885 51.1455 26.1885C50.5455 25.6885 50.0455 25.4885 49.3455 26.0885C48.7455 26.4885 48.1455 26.0885 47.6455 25.7885C45.3788 24.1218 43.1122 22.4552 40.8455 20.7885C37.1455 17.9885 32.3455 17.9886 29.1455 20.8886C28.9455 21.0886 28.7455 21.2885 28.6455 21.6885Z" fill="#012063"/>
<path d="M40.0455 53.3885C36.3788 53.3885 32.7455 53.3885 29.1455 53.3885C28.8455 53.3885 28.4455 53.5884 28.3455 53.1884C28.1455 52.7884 28.4455 52.5885 28.6455 52.3885C30.1122 50.3885 31.5455 48.3885 32.9455 46.3885C33.2455 46.0885 33.5455 45.6884 33.5455 45.2884C33.6455 42.9884 35.2455 41.5885 36.3455 39.9885C38.0455 37.5885 39.7455 35.2885 41.4455 32.9885C41.7455 32.5885 41.9455 31.9885 42.6455 32.3885C43.2455 32.6885 43.8455 33.0885 43.6455 33.8885C43.3455 34.7885 43.6455 35.1885 44.3455 35.5885C45.1455 36.1885 45.8455 36.7884 46.6455 37.2884C47.7455 38.0884 47.9455 37.9885 48.6455 36.9885C49.4455 35.8552 50.2788 34.7551 51.1455 33.6884C51.2455 33.4884 51.4455 33.0884 51.7455 33.1884C52.1455 33.3884 52.0455 33.7885 52.0455 34.0885C52.0455 37.3551 52.0455 40.6218 52.0455 43.8885C52.0455 46.6885 51.9455 49.3885 52.0455 52.0885C52.0455 53.0885 51.7455 53.4885 50.7455 53.4885C47.1455 53.3885 43.5455 53.3885 40.0455 53.3885Z" fill="#012063"/>
</svg>
