<svg width="54" height="36" viewBox="0 0 54 36" fill="none" xmlns="http://www.w3.org/2000/svg">
<path fill-rule="evenodd" clip-rule="evenodd" d="M26.6 35.3999C21.4666 35.3999 16.3333 35.3999 11.2 35.3999C8.40001 35.3999 6.79998 33.7 6.79998 31C6.79998 29.6 6.79998 28.2 6.79998 26.8C6.73332 25.7334 7.03334 24.7666 7.70001 23.8999C10.3 20.0999 13 16.4001 15.7 12.6001C16 12.1001 16.2 11.4999 16.2 10.8999C16.2 9.83324 16.2 8.73343 16.2 7.6001C16.2 6.5001 16.9 5.80005 17.9 5.80005C18.9 5.80005 19.6 6.5001 19.6 7.6001C19.6666 8.73343 19.6666 9.83324 19.6 10.8999C19.6 11.2999 19.8 11.5 20.2 11.5C24.4667 11.5 28.7 11.5 32.9 11.5C33.4 11.5 33.5 11.2999 33.5 10.8999C33.5 9.83324 33.5 8.73343 33.5 7.6001C33.5 6.5001 34.2 5.80005 35.2 5.80005C36.2 5.80005 37 6.5001 37 7.6001C37 8.8001 37 9.9 37 11C36.9 11.6 37.1 12.1001 37.5 12.6001C40.1 16.3001 42.8 20.1 45.4 23.8C46.1 24.7 46.4 25.6999 46.4 26.8999C46.4 28.2999 46.4 29.8 46.4 31.2C46.4 33.6 44.7 35.3999 42.2 35.3999C37 35.3999 31.8 35.3999 26.6 35.3999ZM18.3 24.8C18.9667 24.8 19.6333 24.8 20.3 24.8C20.7 24.8 20.9 24.7 20.8 24.3C20.8 23.7667 20.8 23.2333 20.8 22.7C20.9 22.3 20.7 22.2 20.4 22.2C19.2667 22.2 18.1 22.2 16.9 22.2C16.7 22.2 16.5 22.3001 16.4 22.6001C16.2667 23.2001 16.1 23.7667 15.9 24.3C15.8 24.7 16 24.8 16.3 24.8C16.9667 24.8 17.6333 24.8 18.3 24.8ZM34.7 24.8C35.3667 24.8 36.0333 24.8 36.7 24.8C37.1 24.8 37.2 24.6999 37.1 24.3999C36.9 23.7999 36.7333 23.2001 36.6 22.6001C36.5333 22.3334 36.3666 22.2 36.1 22.2C34.9666 22.2 33.8333 22.2 32.7 22.2C32.3667 22.2 32.2 22.3666 32.2 22.7C32.2 23.2333 32.2 23.7667 32.2 24.3C32.2 24.7 32.4 24.8 32.7 24.8C33.3667 24.8 34.0333 24.8 34.7 24.8ZM29.1 17.8999C29.7 17.8999 30.3 17.8999 30.9 17.8999C31.2 17.8999 31.3 17.7999 31.3 17.3999C31.3 16.8666 31.3 16.3334 31.3 15.8C31.3 15.4 31.2 15.3 30.8 15.3C29.6667 15.3 28.5334 15.3 27.4 15.3C27.1 15.3 26.9 15.4 26.9 15.7C26.9667 16.3 26.9667 16.9 26.9 17.5C26.9 17.8 27.1 17.8999 27.4 17.8999C28 17.8999 28.5666 17.8999 29.1 17.8999ZM23.9 15.3C23.3667 15.3 22.8333 15.3 22.3 15.3C21.9 15.2 21.8 15.4 21.8 15.8C21.8 16.3334 21.8 16.8666 21.8 17.3999C21.7 17.7999 21.9 17.8999 22.2 17.8999C23.4 17.8999 24.5667 17.8999 25.7 17.8999C25.9667 17.8999 26.1 17.7332 26.1 17.3999C26.1 16.8666 26.1 16.3334 26.1 15.8C26.1 15.4 25.9 15.2 25.6 15.3C25.0666 15.3 24.5 15.3 23.9 15.3ZM23.9 21.3C24.5 21.3 25.0666 21.3 25.6 21.3C25.9333 21.3 26.1 21.1334 26.1 20.8C26.1 20.2667 26.1 19.7333 26.1 19.2C26.1 18.9 26 18.7 25.7 18.7C24.5 18.7666 23.3333 18.7666 22.2 18.7C21.9 18.7 21.8 18.9 21.8 19.2C21.8 19.8 21.8 20.3666 21.8 20.8999C21.8 21.1999 21.9 21.3 22.2 21.3C22.7333 21.3 23.3 21.3 23.9 21.3ZM29.2 21.3C29.7333 21.3 30.3 21.3 30.9 21.3C31.2 21.3 31.3 21.1999 31.3 20.8999C31.3 20.3666 31.3 19.8 31.3 19.2C31.3 18.9 31.2 18.7 30.8 18.7C29.6667 18.7666 28.5334 18.7666 27.4 18.7C27.1 18.7 26.9 18.9 26.9 19.2C26.9667 19.7333 27 20.2667 27 20.8C26.9333 21.1334 27.0667 21.3 27.4 21.3C28 21.3 28.6 21.3 29.2 21.3ZM24 22.2C23.4 22.2 22.8 22.2 22.2 22.2C21.9 22.2 21.8 22.4 21.8 22.7C21.8 23.2333 21.8 23.7667 21.8 24.3C21.7333 24.6334 21.8667 24.8 22.2 24.8C23.4 24.8 24.5667 24.8 25.7 24.8C25.9667 24.8 26.1 24.6666 26.1 24.3999C26.1 23.7999 26.1 23.2333 26.1 22.7C26.1 22.3666 25.9667 22.2 25.7 22.2C25.1 22.2 24.5333 22.2 24 22.2ZM29.1 24.8C29.7 24.8 30.2667 24.8 30.8 24.8C31.1333 24.8 31.3 24.6334 31.3 24.3C31.3 23.7667 31.3 23.2333 31.3 22.7C31.3 22.4 31.2 22.2 30.8 22.2C29.6667 22.2 28.5334 22.2 27.4 22.2C27.1 22.2 26.9 22.4 26.9 22.7C26.9667 23.2333 26.9667 23.7667 26.9 24.3C26.9 24.6 27.1 24.8 27.4 24.8C28 24.8 28.5666 24.8 29.1 24.8ZM18.9 21.3C19.4334 21.3 19.9334 21.3 20.4 21.3C20.7 21.3 20.9 21.1999 20.8 20.8999C20.8 20.3666 20.8 19.8 20.8 19.2C20.9 18.8 20.7 18.7 20.4 18.7C19.5334 18.7666 18.7 18.7666 17.9 18.7C17.6 18.7 17.4 18.8001 17.4 19.1001C17.2 19.7001 17.0334 20.2999 16.9 20.8999C16.8 21.1999 16.9 21.3 17.3 21.3C17.8333 21.3 18.3667 21.3 18.9 21.3ZM34.3 21.3C34.8333 21.3 35.3667 21.3 35.9 21.3C36.2 21.3 36.3 21.2 36.2 21C36 20.3333 35.8333 19.7001 35.7 19.1001C35.6 18.8001 35.4 18.7 35.2 18.7C34.3333 18.7666 33.4666 18.7666 32.6 18.7C32.3333 18.7 32.2 18.8666 32.2 19.2C32.2 19.7333 32.2 20.2667 32.2 20.8C32.2 21.1334 32.3667 21.3 32.7 21.3C33.2333 21.3 33.7667 21.3 34.3 21.3ZM19.3 17.8999C19.6333 17.8999 20 17.8999 20.4 17.8999C20.7 17.8999 20.9 17.7999 20.8 17.3999C20.8 16.8666 20.8 16.3 20.8 15.7C20.8 15.4 20.7 15.3 20.4 15.3C19.8667 15.3 19.3333 15.3 18.8 15.3C18.5 15.3 18.4 15.4 18.3 15.7C18.1667 16.3 18 16.9 17.8 17.5C17.7 17.8 17.8 17.8999 18.1 17.8999C18.5 17.8999 18.9 17.8999 19.3 17.8999ZM33.7 17.8999C33.9 17.8999 34.1334 17.8999 34.4 17.8999C35.3 17.8999 35.3 17.9 35.1 17C35.0333 16.8667 35 16.7 35 16.5C34.5 15.1 34.9 15.3 33.3 15.3C32.1 15.3 32.2 15.0999 32.2 16.3999C32.2 17.8999 32.2 17.8999 33.7 17.8999Z" fill="white"/>
<path d="M27.7 0C31.7 0.1 36.7 0.299951 41.7 1.19995C44.1 1.59995 46.4 2.0999 48.5 3.3999C50.2 4.3999 51.6 5.79995 52.5 7.69995C52.9 8.63328 53.0667 9.6001 53 10.6001C53 10.9001 52.9 11.1 52.6 11.2C47.9 12.2 43.4 11.4999 39.3 8.8999C39.1 8.7999 38.9 8.60005 38.8 8.30005C38.5 6.70005 37.6 5.7001 36.2 5.1001C34.4 4.4001 32.6 4.0999 30.7 3.8999C27.9667 3.63324 25.2333 3.63324 22.5 3.8999C20.6 4.0999 18.7 4.4001 17 5.1001C15.6 5.7001 14.6 6.70005 14.4 8.30005C14.3 8.50005 14.2 8.59995 14 8.69995C11 10.7 7.69998 11.6001 4.09998 11.6001C2.99998 11.6001 1.89999 11.5 0.799988 11.3C0.299988 11.2 0.199976 10.9 0.0999756 10.5C0.0999756 8.8 0.700012 7.3 1.70001 6C3.40001 3.9 5.59998 2.5999 8.09998 1.8999C10.9 1.1999 13.9 0.7 16.8 0.5C20 0.2 23.3 0 27.7 0Z" fill="white"/>
<path d="M6.5 15.3C5.23334 15.3 3.99999 15.0999 2.79999 14.6999C1.79999 14.2999 0.999978 13.6 0.599978 12.5C0.499978 12.1 0.500003 11.9 1 12C2.4 12.3 3.89999 12.4 5.29999 12.3C8.29999 12.2 11 11.3999 13.5 9.89989C14.1 9.49989 14.1 9.59994 14.2 10.1999C14.5 11.7999 13.9 12.8999 12.5 13.6999C10.6 14.7999 8.6 15.3 6.5 15.3Z" fill="white"/>
<path d="M46.7 15.3001C44.4 15.3001 42.3 14.7 40.4 13.5C39.1 12.6 38.6 11.5 39 10C39.1 9.50004 39.3 9.79995 39.5 9.89995C41.0333 10.7666 42.6333 11.4001 44.3 11.8001C46.9 12.5001 49.5 12.5 52.1 12C52.3 12 52.5 11.9001 52.6 12.1001C52.7 12.2001 52.6 12.4001 52.5 12.6001C52.1 13.7001 51.4 14.3 50.3 14.7C49.1666 15.1 47.9667 15.3001 46.7 15.3001Z" fill="white"/>
</svg>
