<svg width="15" height="22" viewBox="0 0 15 22" fill="none" xmlns="http://www.w3.org/2000/svg">
<path fill-rule="evenodd" clip-rule="evenodd" d="M7.20001 21.0999C7.13335 21.0332 7.06667 20.9666 7 20.8999C7 20.8332 7 20.8 7 20.8C6.8 20.5334 6.59996 20.2667 6.39996 20C6.3333 19.9333 6.26668 19.8667 6.20001 19.8C6.06668 19.6 5.93332 19.4 5.79999 19.2C5.79999 19.2 5.76668 19.1665 5.70001 19.0999C5.70001 19.0999 5.66664 19.0667 5.59998 19C5.53331 18.8667 5.46663 18.7666 5.39996 18.7C5.26663 18.5 5.16664 18.3333 5.09998 18.2C5.03331 18.1333 4.96663 18.0667 4.89996 18C4.89996 17.9333 4.89996 17.8999 4.89996 17.8999C4.76663 17.7666 4.63333 17.5999 4.5 17.3999C4.43333 17.3332 4.39996 17.2666 4.39996 17.2C4.39996 17.1333 4.36665 17.0999 4.29999 17.0999C4.23332 16.9665 4.13333 16.7999 4 16.5999C3.93333 16.5332 3.89996 16.4666 3.89996 16.3999C3.8333 16.3332 3.79999 16.3 3.79999 16.3C3.73332 16.1667 3.63333 16 3.5 15.8C3.36667 15.6 3.26668 15.4334 3.20001 15.3C3.13335 15.2334 3.09998 15.1665 3.09998 15.0999C3.03331 15.0332 3 15 3 15C2.93333 14.9333 2.89996 14.8333 2.89996 14.7C2.8333 14.7 2.79999 14.7 2.79999 14.7C2.79999 14.6333 2.76668 14.5667 2.70001 14.5C2.63335 14.3 2.5333 14.1333 2.39996 14C2.39996 13.8667 2.36665 13.7666 2.29999 13.7C2.23332 13.5666 2.16664 13.4666 2.09998 13.3999C2.09998 13.3332 2.06667 13.2666 2 13.2C1.93333 13.0666 1.89996 12.9666 1.89996 12.8999C1.8333 12.8332 1.76668 12.7666 1.70001 12.7C1.70001 12.7 1.70001 12.6665 1.70001 12.5999C1.70001 12.5332 1.66664 12.4666 1.59998 12.3999C1.59998 12.3332 1.56667 12.2666 1.5 12.2C1.5 12.1333 1.5 12.0999 1.5 12.0999C1.43333 12.0332 1.39996 11.9666 1.39996 11.8999C1.26663 11.6999 1.16664 11.5 1.09998 11.3C1.03331 11.1 0.96663 10.9334 0.899963 10.8C0.833297 10.7334 0.799988 10.6333 0.799988 10.5C0.799988 10.4333 0.766679 10.3667 0.700012 10.3C0.700012 10.1667 0.666642 10.0667 0.599976 10C0.599976 9.93333 0.566667 9.83328 0.5 9.69995C0.5 9.63328 0.46663 9.56667 0.399963 9.5C0.399963 9.36667 0.366654 9.26662 0.299988 9.19995C0.299988 9.13328 0.299988 9.06667 0.299988 9C0.233321 8.8 0.200012 8.63333 0.200012 8.5C0.133346 8.36667 0.0999756 8.26662 0.0999756 8.19995C0.0999756 8.06662 0.0999756 7.96657 0.0999756 7.8999C0.0999756 7.83324 0.0999756 7.76662 0.0999756 7.69995C0.0333089 7.49995 0 7.33328 0 7.19995C0 7.19995 0 7.16652 0 7.09985C0 7.03319 0 6.93338 0 6.80005C0 6.73338 0 6.66652 0 6.59985C0.0666667 6.53319 0.0999756 6.43338 0.0999756 6.30005C0.0999756 6.23338 0.0999756 6.13333 0.0999756 6C0.0999756 5.93333 0.133346 5.86672 0.200012 5.80005C0.200012 5.73338 0.200012 5.69995 0.200012 5.69995C0.200012 5.63328 0.200012 5.56667 0.200012 5.5C0.200012 5.43333 0.233321 5.36672 0.299988 5.30005C0.299988 5.16672 0.333297 5.06667 0.399963 5C0.399963 4.8 0.433333 4.63333 0.5 4.5C0.566667 4.36667 0.633346 4.26662 0.700012 4.19995C0.700012 4.19995 0.700012 4.16652 0.700012 4.09985C0.700012 4.03319 0.733321 3.96657 0.799988 3.8999C0.799988 3.83324 0.833297 3.76662 0.899963 3.69995C0.899963 3.69995 0.899963 3.66652 0.899963 3.59985C0.96663 3.53319 1.03331 3.46657 1.09998 3.3999C1.16664 3.26657 1.26663 3.0999 1.39996 2.8999C1.39996 2.8999 1.43333 2.86672 1.5 2.80005C1.56667 2.73338 1.59998 2.66652 1.59998 2.59985C1.66664 2.59985 1.73332 2.56667 1.79999 2.5C1.79999 2.43333 1.8333 2.3999 1.89996 2.3999C2.0333 2.1999 2.16665 2.03324 2.29999 1.8999C2.36665 1.83324 2.43333 1.76662 2.5 1.69995C2.56667 1.63328 2.63335 1.59985 2.70001 1.59985C2.70001 1.53319 2.73332 1.5 2.79999 1.5C2.86665 1.43333 2.93333 1.36672 3 1.30005C3.06667 1.30005 3.09998 1.30005 3.09998 1.30005C3.23331 1.16672 3.39998 1.06667 3.59998 1C3.73331 0.866667 3.89998 0.766618 4.09998 0.699951C4.29998 0.633285 4.46664 0.566667 4.59998 0.5C4.73331 0.433333 4.8333 0.399902 4.89996 0.399902C4.96663 0.333236 5.03331 0.300049 5.09998 0.300049C5.16664 0.300049 5.20001 0.300049 5.20001 0.300049C5.26668 0.233382 5.3333 0.199951 5.39996 0.199951C5.46663 0.199951 5.56668 0.16652 5.70001 0.0998535C5.76668 0.0998535 5.8333 0.0998535 5.89996 0.0998535C6.0333 0.0998535 6.13335 0.0998535 6.20001 0.0998535C6.20001 0.0998535 6.20001 0.0666667 6.20001 0C6.33335 0 6.46664 0 6.59998 0C6.69998 0 6.69999 0 6.79999 0C7.06665 0 7.3 0 7.5 0C7.6 0 7.70001 0 7.70001 0C7.90001 0 8.09999 0.0331868 8.29999 0.0998535C8.43332 0.0998535 8.53331 0.0998535 8.59998 0.0998535C8.66664 0.0998535 8.73332 0.133285 8.79999 0.199951C8.93332 0.199951 9.03331 0.199951 9.09998 0.199951C9.09998 0.199951 9.09998 0.233382 9.09998 0.300049C9.16664 0.300049 9.20001 0.300049 9.20001 0.300049C9.26668 0.300049 9.3333 0.300049 9.39996 0.300049C9.46663 0.366715 9.53331 0.399902 9.59998 0.399902C9.73331 0.466569 9.8333 0.5 9.89996 0.5C9.89996 0.5 9.93333 0.5 10 0.5C10.0667 0.566667 10.1333 0.599854 10.2 0.599854C10.2667 0.66652 10.3333 0.733382 10.4 0.800049C10.4 0.800049 10.4333 0.800049 10.5 0.800049C10.5667 0.866715 10.6333 0.899902 10.7 0.899902C10.7667 0.966569 10.8333 1 10.9 1C10.9666 1.06667 11 1.09985 11 1.09985C11.0667 1.16652 11.1333 1.19995 11.2 1.19995C11.2667 1.26662 11.3333 1.30005 11.4 1.30005C11.4 1.36672 11.4333 1.3999 11.5 1.3999C11.6333 1.53324 11.8 1.66672 12 1.80005C12.3333 2.13338 12.6333 2.4999 12.9 2.8999C12.9666 2.96657 13.0333 3.03319 13.1 3.09985C13.1 3.09985 13.1 3.13328 13.1 3.19995C13.2333 3.33328 13.3333 3.49995 13.4 3.69995C13.5333 3.83328 13.6333 3.99995 13.7 4.19995C13.7667 4.39995 13.8333 4.60005 13.9 4.80005C13.9666 4.86672 14 4.93333 14 5C14.0667 5.2 14.1333 5.36667 14.2 5.5C14.2 5.63333 14.2 5.73338 14.2 5.80005C14.2 5.86672 14.2 5.93333 14.2 6C14.2667 6.13333 14.3 6.23338 14.3 6.30005C14.3 6.43338 14.3 6.53319 14.3 6.59985C14.3 6.66652 14.3 6.73338 14.3 6.80005C14.3 6.86672 14.3 6.96652 14.3 7.09985C14.3 7.16652 14.3 7.19995 14.3 7.19995C14.3 7.33328 14.3 7.43333 14.3 7.5C14.3 7.56667 14.3 7.59985 14.3 7.59985C14.3 7.66652 14.3 7.69995 14.3 7.69995C14.3 7.76662 14.3 7.83324 14.3 7.8999C14.3 7.96657 14.3 8.06662 14.3 8.19995C14.2333 8.26662 14.2 8.36667 14.2 8.5C14.2 8.56667 14.2 8.63328 14.2 8.69995C14.1333 8.89995 14.0667 9.06662 14 9.19995C14 9.33328 13.9666 9.43333 13.9 9.5C13.9 9.63333 13.8667 9.8 13.8 10C13.7333 10.0667 13.7 10.1667 13.7 10.3C13.6333 10.4334 13.5667 10.6 13.5 10.8C13.4333 10.8667 13.4 10.9333 13.4 11C13.3333 11.0667 13.3 11.1333 13.3 11.2C13.3 11.2666 13.2667 11.3 13.2 11.3C13.2 11.4334 13.1666 11.5332 13.1 11.5999C13.0333 11.7999 12.9666 11.9665 12.9 12.0999C12.8333 12.2999 12.7333 12.4665 12.6 12.5999C12.5333 12.7999 12.4666 13 12.4 13.2C12.2666 13.3333 12.1666 13.5 12.1 13.7C11.9666 13.9 11.8667 14.0666 11.8 14.2C11.8 14.2666 11.7667 14.3 11.7 14.3C11.7 14.3667 11.6666 14.4333 11.6 14.5C11.6 14.5667 11.5667 14.6667 11.5 14.8C11.4333 14.8667 11.3667 14.9333 11.3 15C11.2333 15.2 11.1333 15.3667 11 15.5C11 15.5667 10.9666 15.6333 10.9 15.7C10.9 15.7 10.9 15.7334 10.9 15.8C10.8333 15.8667 10.7667 15.9665 10.7 16.0999C10.6333 16.1665 10.5667 16.2334 10.5 16.3C10.4333 16.5 10.3333 16.6667 10.2 16.8C10.2 16.8667 10.2 16.8999 10.2 16.8999C10.1333 16.9666 10.0667 17.0332 10 17.0999C9.86667 17.2999 9.76668 17.4665 9.70001 17.5999C9.63335 17.6665 9.59998 17.7 9.59998 17.7C9.59998 17.7666 9.56667 17.8332 9.5 17.8999C9.36667 18.0999 9.23331 18.2666 9.09998 18.3999C9.09998 18.4666 9.09998 18.5 9.09998 18.5C9.03331 18.5667 9 18.6333 9 18.7C8.93333 18.7666 8.89996 18.8 8.89996 18.8C8.8333 18.8667 8.79999 18.8999 8.79999 18.8999C8.66665 19.0999 8.5333 19.3 8.39996 19.5C8.3333 19.5 8.29999 19.5332 8.29999 19.5999C8.23332 19.6665 8.20001 19.7334 8.20001 19.8C8.06668 19.9334 7.93332 20.1 7.79999 20.3C7.73332 20.3667 7.66664 20.4333 7.59998 20.5C7.53331 20.5667 7.5 20.6333 7.5 20.7C7.43333 20.7666 7.39996 20.8 7.39996 20.8C7.3333 20.8667 7.26668 20.9665 7.20001 21.0999ZM5.39996 10.2C5.59996 10.2666 5.76663 10.3332 5.89996 10.3999C6.0333 10.4666 6.13335 10.5 6.20001 10.5C6.40001 10.5667 6.56668 10.5999 6.70001 10.5999C6.76668 10.5999 6.8333 10.5999 6.89996 10.5999C7.0333 10.5999 7.16665 10.5999 7.29999 10.5999C7.36665 10.5999 7.43333 10.5999 7.5 10.5999C7.7 10.5999 7.89998 10.5667 8.09998 10.5C8.16664 10.5 8.23332 10.4666 8.29999 10.3999C8.49999 10.3332 8.69996 10.2666 8.89996 10.2C9.0333 10.1333 9.19996 10.0332 9.39996 9.8999C9.39996 9.83324 9.43333 9.76662 9.5 9.69995C9.56667 9.69995 9.63335 9.66652 9.70001 9.59985C9.70001 9.59985 9.73332 9.56667 9.79999 9.5C9.93332 9.36667 10.0667 9.2 10.2 9C10.2 8.93333 10.2 8.8999 10.2 8.8999C10.2667 8.83324 10.3 8.76662 10.3 8.69995C10.3667 8.56662 10.4 8.46657 10.4 8.3999C10.4666 8.33324 10.5 8.23319 10.5 8.09985C10.5667 8.03319 10.6 7.96657 10.6 7.8999C10.6 7.83324 10.6 7.76662 10.6 7.69995C10.6666 7.56662 10.7 7.46657 10.7 7.3999C10.7 7.33324 10.7 7.30005 10.7 7.30005C10.7 7.23338 10.7 7.16652 10.7 7.09985C10.7 7.03319 10.7 6.96657 10.7 6.8999C10.7 6.76657 10.6666 6.66652 10.6 6.59985C10.6666 6.59985 10.6666 6.59985 10.6 6.59985C10.6 6.46652 10.6 6.36672 10.6 6.30005C10.6 6.23338 10.5667 6.16652 10.5 6.09985C10.5 6.03319 10.5 5.96657 10.5 5.8999C10.4333 5.83324 10.4 5.80005 10.4 5.80005C10.4 5.66672 10.3667 5.56667 10.3 5.5C10.2333 5.43333 10.2 5.36672 10.2 5.30005C10.2 5.30005 10.1666 5.30005 10.1 5.30005C10.0333 5.16672 9.96663 5.03324 9.89996 4.8999C9.69996 4.63324 9.43331 4.39995 9.09998 4.19995C9.03331 4.13328 8.96663 4.09985 8.89996 4.09985C8.76663 4.03319 8.66664 3.96657 8.59998 3.8999C8.53331 3.8999 8.46663 3.86672 8.39996 3.80005C8.26663 3.80005 8.16664 3.76662 8.09998 3.69995C7.96664 3.69995 7.86665 3.69995 7.79999 3.69995C7.53332 3.63328 7.26667 3.59985 7 3.59985C6.8 3.59985 6.59996 3.63328 6.39996 3.69995C6.3333 3.69995 6.26668 3.73338 6.20001 3.80005C6.13335 3.80005 6.0333 3.83324 5.89996 3.8999C5.89996 3.8999 5.86665 3.8999 5.79999 3.8999C5.73332 3.8999 5.70001 3.93333 5.70001 4C5.56668 4 5.46663 4.03319 5.39996 4.09985C5.3333 4.09985 5.29999 4.13328 5.29999 4.19995C5.23332 4.19995 5.16664 4.23338 5.09998 4.30005C5.03331 4.36672 4.96663 4.43333 4.89996 4.5C4.8333 4.56667 4.73331 4.63328 4.59998 4.69995C4.59998 4.69995 4.59998 4.73338 4.59998 4.80005C4.53331 4.86672 4.46663 4.93333 4.39996 5C4.39996 5 4.39996 5.03319 4.39996 5.09985C4.3333 5.16652 4.26668 5.23338 4.20001 5.30005C4.13335 5.43338 4.06667 5.60005 4 5.80005C3.93333 5.86672 3.86665 5.96652 3.79999 6.09985C3.79999 6.23319 3.76668 6.39985 3.70001 6.59985C3.70001 6.73319 3.70001 6.83324 3.70001 6.8999C3.70001 6.96657 3.70001 7.03319 3.70001 7.09985C3.70001 7.23319 3.70001 7.36667 3.70001 7.5C3.70001 7.56667 3.70001 7.63328 3.70001 7.69995C3.70001 7.76662 3.73332 7.83324 3.79999 7.8999C3.79999 7.96657 3.79999 8.03319 3.79999 8.09985C3.79999 8.09985 3.79999 8.13328 3.79999 8.19995C3.86665 8.26662 3.89996 8.33324 3.89996 8.3999C3.96663 8.5999 4.06668 8.8 4.20001 9C4.26668 9.06667 4.29999 9.13328 4.29999 9.19995C4.36665 9.19995 4.39996 9.19995 4.39996 9.19995C4.5333 9.39995 4.66665 9.56662 4.79999 9.69995C4.86665 9.76662 4.96664 9.86667 5.09998 10C5.16664 10 5.20001 10 5.20001 10C5.26668 10.0667 5.3333 10.1333 5.39996 10.2Z" fill="#CE2428"/>
</svg>
