<svg width="68" height="49" viewBox="0 0 68 49" fill="none" xmlns="http://www.w3.org/2000/svg">
<path d="M26.9001 44.4226C25.7001 45.8226 24 46.0226 22.5 45.0226C21.6 44.3226 21.0001 43.4226 20.8001 42.3227C20.8001 41.9226 20.9001 41.6227 20.9001 41.2227C19.5001 42.1227 18.1001 41.8226 16.8001 40.9226C15.6001 40.0226 15.0001 38.7226 15.4001 37.1226C14.7001 37.5226 14 37.7227 13.2 37.7227C11 37.6227 8.70001 35.0226 10.1 32.4226C10.5 31.7226 11.1 31.1226 11.6 30.4226C11.7333 30.2893 11.8667 30.1559 12 30.0226C12.5 29.4226 12.5 29.6226 12 29.1226C11.2667 28.1892 10.5334 27.256 9.80008 26.3227C9.60008 26.0227 9.50001 25.8226 9.60001 25.4226C9.86668 24.756 10.1334 24.0893 10.4001 23.4226C10.5001 23.2226 10.7001 23.1226 10.8001 23.4226C11.8001 24.6226 12.8001 25.7893 13.8001 26.9226C13.9001 27.0226 14.1 27.2227 14.2 27.3227C14.4 27.4227 14.6 27.2226 14.7 27.1226C15.7 26.8226 16.7 26.7227 17.7 27.2227C18.9 27.8227 19.7001 28.8227 19.9001 30.2227C20.0001 30.9227 19.8 31.5226 19.5 32.1226C19.5 32.1892 19.4667 32.256 19.4001 32.3227C22.1001 31.0227 25.5 33.9227 24.5 36.8227C25.9 35.9227 27.3001 36.3227 28.4001 37.2227C29.6001 38.1227 30.2 39.3227 29.7 40.8227C29.7667 40.8227 29.8334 40.8227 29.9001 40.8227C31.7001 40.2227 33.7 41.4226 34.1 43.4226C34.1667 43.756 34.1334 44.0893 34 44.4226C33.9 44.6226 33.9 44.8226 34.1 44.9226C34.7 45.2226 35.2001 45.5226 35.9001 45.5226C36.7001 45.6226 37.3001 45.2226 37.8001 44.5226C38.1001 44.1226 38 43.9226 37.6 43.6226C36.0667 42.4892 34.5667 41.356 33.1 40.2227C32.7 39.956 32.3334 39.6893 32 39.4226C31.5 39.0226 31.4001 38.4226 31.8001 37.8227C32.2001 37.3227 32.8001 37.1226 33.3001 37.4226C33.7001 37.6893 34.0667 37.956 34.4001 38.2227C36.4001 39.6227 38.4001 41.0226 40.4001 42.4226C41.0001 42.8226 41.6 43.2226 42.2 43.6226C42.9 44.1226 43.7001 44.1226 44.3001 43.6226C45.0001 43.1226 45.3 42.1226 45.1 41.4226C44.9667 41.0893 44.7667 40.8226 44.5 40.6226C43.5 39.9226 42.6 39.3226 41.7 38.6226C40.7 37.8226 39.6 37.1226 38.6 36.4226C37.4 35.5226 36.2 34.7227 35.1 33.8227C34.5 33.4227 34.3 32.6226 34.7 32.0226C35.1 31.5226 35.9 31.4227 36.5 31.7227C37.3 32.3227 38.1 32.9226 39 33.5226C40 34.2226 41 35.0227 42 35.7227C43.2 36.5893 44.4 37.4227 45.6 38.2227C46.2 38.7227 46.8 39.1226 47.5 39.5226C48.6 40.2226 49.7001 40.1226 50.3001 38.9226C50.7001 38.3226 50.7001 37.2226 49.9001 36.6226C48.9001 35.9559 47.9001 35.2559 46.9001 34.5226C45.3667 33.3893 43.8334 32.2893 42.3001 31.2227C40.7668 30.156 39.2667 29.0893 37.8001 28.0226C37.6001 27.8226 37.4334 27.6226 37.3001 27.4226C37.0001 26.9226 37.0001 26.3226 37.3001 25.9226C37.6001 25.6226 38.2001 25.4226 38.8001 25.6226C39.0667 25.7559 39.3333 25.9226 39.6 26.1226C40.8667 27.0559 42.1667 27.9893 43.5 28.9226C44.3 29.456 45.0667 30.0226 45.8001 30.6226C47.8001 32.0226 49.8334 33.456 51.9001 34.9226C52.4001 35.3226 53.1 35.3226 53.7 35.1226C54.9 34.7226 55.9001 33.6226 55.4001 32.1226C55.3001 31.8226 55.2001 31.5227 54.9001 31.3227C53.3001 29.9227 51.7 28.5226 50.1 27.1226C48.1 25.3892 46.1333 23.656 44.2 21.9226C42.4 20.3893 40.6334 18.856 38.9001 17.3227C38.2001 16.7227 37.4001 16.2226 36.9001 15.4226C36.3001 14.6226 35.4 14.3227 34.5 14.2227C33.1 14.0227 31.9 14.3226 31 15.4226C30.6667 15.756 30.4667 16.1559 30.4001 16.6226C30.0001 18.9226 28.9 20.6226 27.1 22.0226C25.6 23.1226 23.8001 23.4226 21.9001 22.9226C21.1001 22.7226 20.6001 22.1226 20.3001 21.5226C20.0001 21.1226 20.0001 20.6227 20.3001 20.2227C21.1001 18.7227 21.4 17.1226 21.5 15.4226C21.5 14.8893 21.5333 14.356 21.6 13.8227C21.6 13.356 21.7334 12.9226 22 12.5226C22.3334 11.8559 22.7 11.156 23.1 10.4226C23.3 10.1226 23.2001 10.1226 22.9001 10.1226C20.9001 10.1226 18.9001 10.1226 16.9001 10.1226C16.7001 10.1226 16.6333 10.0227 16.7 9.82265C17.1667 8.88932 17.6667 7.95594 18.2 7.0226C18.2 7.0226 18.3001 6.92263 18.4001 6.92263C19.7001 7.02263 21.0001 6.92263 22.3001 6.92263C24.1667 6.98929 26.0001 7.0226 27.8001 7.0226C28.0667 7.0226 28.3333 6.95599 28.6 6.82265C30.6 5.62265 32.8 5.02263 35.1 4.92263C37.1 4.72263 39.1 5.12268 41.1 5.72268C42.6 6.12268 44.1 6.52265 45.7 6.82265C46.5 7.02265 47.3 7.12258 48.2 7.12258C49 7.02258 49.1001 7.12263 49.4001 7.92263C50.2667 9.85596 51.2 11.7893 52.2 13.7227C52.4 14.1227 52.6001 14.6226 52.8001 15.1226C54.0667 17.7892 55.3667 20.4893 56.7 23.2227C57.1 24.0227 57.5001 24.8226 57.9001 25.6226C58.0001 25.9226 58.0001 26.1226 57.9001 26.4226C57.5001 27.2226 57.1 28.056 56.7 28.9226C56.6 29.1226 56.6 29.3226 56.7 29.4226C57.4333 30.2226 57.8667 31.1226 58 32.1226C58.3 33.5226 57.9 34.8226 57 35.9226C56.4 36.7226 55.7 37.2226 54.7 37.4226C54.3 37.5226 53.9 37.6226 53.5 37.6226C53.1 37.6226 53 37.8226 53 38.1226C53.1 38.9226 52.8 39.6227 52.5 40.2227C52 41.4227 51.1001 42.0227 49.8001 42.3227C49.3334 42.456 48.8334 42.5226 48.3001 42.5226C47.9001 42.4226 47.7 42.6226 47.6 42.9226C47.3 43.8226 46.9001 44.5227 46.3001 45.2227C45.2001 46.4227 43.9001 46.6227 42.3001 46.2227C41.7001 46.1227 41.2 45.8226 40.6 45.5226C40.4 45.3226 40.2 45.3226 40 45.6226C39.3 46.9226 38.2 47.8226 36.7 48.0226C35.4 48.2226 34.3001 47.7226 33.3001 47.0226C32.3001 46.4226 32.4 46.4226 31.7 47.3227C31.1 48.0227 30.2 48.2226 29.2 47.9226C28.0667 47.456 27.3001 46.6559 26.9001 45.5226C26.8001 45.2226 26.8001 44.8226 26.9001 44.4226Z" fill="#012063"/>
<path d="M67.7 22.3227C67.7 22.9227 67.5001 23.4227 67.0001 23.7227C66.2001 24.1227 65.3001 24.5227 64.4001 24.9227C63.8001 25.256 63.1667 25.5561 62.5001 25.8227C61.5667 26.2227 60.8667 25.956 60.4001 25.0227C59.7334 23.6227 59.0668 22.2227 58.4001 20.8227C57.2001 18.3561 56.0001 15.8894 54.8001 13.4227C53.4001 10.4227 52 7.4227 50.6 4.4227C50.1334 3.4227 50.4001 2.68941 51.4001 2.22274C52.7334 1.55608 54.1001 0.889412 55.5001 0.222745C56.5001 -0.243922 57.2333 0.0226716 57.7 1.02267C58.6333 2.956 59.5334 4.85608 60.4001 6.72274C61.2001 8.32275 61.9667 9.92267 62.7 11.5227C63.5 13.3227 64.3 15.0227 65.2 16.7227C65.7 17.8227 66.2001 19.0226 66.8001 20.1226C67.1334 20.7226 67.4333 21.3227 67.7 21.9227C67.7 22.1227 67.7 22.2227 67.7 22.3227Z" fill="#012063"/>
<path d="M6 26.0228C5.73333 26.0228 5.46662 25.9562 5.19995 25.8228C3.79995 25.1562 2.4 24.4895 1 23.8228C0.6 23.6228 0.2 23.3229 0 22.7229C0 22.4229 -2.44156e-05 22.1228 0.0999756 21.8228C0.599976 20.9228 1.00002 20.1229 1.40002 19.2229C1.80002 18.0229 2.40002 16.9228 2.90002 15.8228C4.10002 13.5228 5.20002 11.1229 6.40002 8.72286C7.20002 7.12286 7.90005 5.32286 8.80005 3.72286C9.20005 2.8562 9.6 1.98943 10 1.12276C10.4667 0.0560981 11.2334 -0.210495 12.3 0.322838C13.7 0.922838 15.1 1.5562 16.5 2.22286C17.3 2.62286 17.6 3.52284 17.2 4.32284C16.4 6.05617 15.5666 7.82276 14.7 9.62276C13.7666 11.5561 12.8334 13.4562 11.9 15.3228C10.9667 17.3228 10.0333 19.3228 9.09998 21.3228C8.49998 22.5895 7.90005 23.8561 7.30005 25.1228C7.00005 25.7228 6.5 25.9228 6 26.0228Z" fill="#012063"/>
</svg>
