<svg width="65" height="65" viewBox="0 0 65 65" fill="none" xmlns="http://www.w3.org/2000/svg">
<path fill-rule="evenodd" clip-rule="evenodd" d="M34.1856 0.00536172C48.3856 0.00536172 61.7856 11.6054 63.8856 27.2054C65.9856 42.8054 56.3857 57.6054 41.2857 61.9054C33.4857 64.1054 25.8856 63.4054 18.5856 59.8054C17.6856 59.4054 16.9856 59.3054 15.9856 59.6054C11.0856 61.3054 6.08558 62.8054 1.08558 64.4054C0.785581 64.5054 0.385581 64.8054 0.0855811 64.5054C-0.114419 64.2054 0.0855567 63.9054 0.185557 63.6054C1.78556 58.672 3.41891 53.772 5.08558 48.9054C5.38558 48.1054 5.38561 47.6054 4.98561 46.8054C-3.51439 31.4054 1.98563 12.4054 17.3856 3.80536C22.0856 1.20536 27.1856 -0.0946383 34.1856 0.00536172ZM8.48561 56.1054C8.98561 56.2054 9.28558 56.1054 9.58558 56.0054C12.1189 55.1387 14.6857 54.3054 17.2857 53.5054C17.8857 53.3054 18.3856 53.3054 18.9856 53.7054C24.5856 57.1054 30.5856 58.2054 36.9856 57.2054C51.1856 54.8054 60.7856 41.1054 58.1856 26.9054C56.0856 15.3054 46.3856 6.40536 34.5856 5.60536C26.2856 5.00536 19.2856 7.80536 13.5856 13.8054C5.38558 22.6054 4.28563 35.8054 10.8856 45.7054C11.3856 46.6054 11.4856 47.3054 11.1856 48.2054C10.1856 50.8054 9.3856 53.4054 8.48561 56.1054Z" fill="#014D9A"/>
<path d="M16.7856 24.1053C16.7856 21.1053 17.7856 18.8053 19.9856 16.9053C20.8856 16.0053 23.3855 15.7053 24.5855 16.3053C24.9855 16.5053 25.2856 16.9053 25.3856 17.3053C26.2522 19.5053 27.0856 21.672 27.8856 23.8053C28.1856 24.8053 27.6855 25.6053 27.0855 26.3053C26.6855 26.9053 26.2188 27.4387 25.6855 27.9053C25.0855 28.5053 25.0856 29.0053 25.4856 29.7053C27.8856 34.0053 31.2856 37.2053 35.7856 39.2053C36.4856 39.6053 37.0855 39.5053 37.6855 38.8053C38.3855 38.0053 39.0856 37.2053 39.7856 36.3053C40.3856 35.5053 41.1855 35.3053 42.0855 35.8053C44.1855 36.8053 46.1856 37.9053 48.2856 39.0053C48.6856 39.3053 48.9856 39.6053 48.9856 40.1053C48.9856 42.3053 48.4855 44.2053 46.5855 45.5053C43.8855 47.4053 41.0856 47.8053 37.9856 46.8053C30.1856 44.4053 24.3855 39.6053 20.0855 32.7053C18.9855 31.0053 17.8856 29.3053 17.2856 27.4053C16.9856 26.2053 16.6856 25.1053 16.7856 24.1053Z" fill="#014D9A"/>
</svg>
