<svg width="30" height="517" viewBox="0 0 30 517" fill="none" xmlns="http://www.w3.org/2000/svg">
<path d="M27.3999 14.7002C27.3999 21.8002 21.6997 27.5 14.6997 27.5C7.69971 27.5 2 21.8002 2 14.7002C2 7.7002 7.69971 2 14.6997 2C21.6997 2 27.3999 7.7002 27.3999 14.7002Z" stroke="white" stroke-width="4" stroke-miterlimit="10"/>
<path d="M14.7002 27.5V137.9" stroke="white" stroke-width="4" stroke-miterlimit="10"/>
<path d="M14.7002 163.4V309.9" stroke="white" stroke-width="4" stroke-miterlimit="10"/>
<path d="M14.7002 335.4V516.201" stroke="white" stroke-width="4" stroke-miterlimit="10"/>
<path d="M27.3999 150.701C27.3999 157.701 21.6997 163.4 14.6997 163.4C7.69971 163.4 2 157.701 2 150.701C2 143.701 7.69971 137.9 14.6997 137.9C21.6997 137.9 27.3999 143.701 27.3999 150.701Z" stroke="white" stroke-width="4" stroke-miterlimit="10"/>
<path d="M27.3999 322.601C27.3999 329.701 21.6997 335.4 14.6997 335.4C7.69971 335.4 2 329.701 2 322.601C2 315.601 7.69971 309.9 14.6997 309.9C21.6997 309.9 27.3999 315.601 27.3999 322.601Z" stroke="white" stroke-width="4" stroke-miterlimit="10"/>
</svg>
